<svg width="444" height="347" viewBox="0 0 444 347" fill="none" xmlns="http://www.w3.org/2000/svg">
<g clip-path="url(#clip0_795_51490)">
<path d="M297 252.175L360.321 256.948L361 257V27.5756C360.774 27.4418 360.548 27.3079 360.321 27.174C347.125 19.336 332.849 12.8969 317.812 8L314.577 45.894L314.282 49.3632L311.081 86.9429L310.093 98.5031L297.117 250.836L297 252.175Z" fill="#E6E6E6"/>
<path d="M138.379 23.1589C137.919 23.4035 137.46 23.6482 137 23.9044V257L138.379 256.895L202 252.172L201.882 250.832L188.701 98.4053L187.698 86.8379L184.446 49.2351L184.147 45.7637L180.7 6C165.836 10.3097 151.631 16.0691 138.379 23.1589Z" fill="#E6E6E6"/>
<path d="M321 46H177V50H321V46Z" fill="#E6E6E6"/>
<path d="M293 1.63111C291.671 1.40702 290.342 1.19665 289 1V75H293V1.63111Z" fill="#E6E6E6"/>
<path d="M210 0C208.664 0.169393 207.329 0.343359 206 0.531065V75H210V0Z" fill="#E6E6E6"/>
<path d="M91.7803 265.108C91.7793 267.481 92.2333 269.833 93.1178 272.035C93.4574 272.889 93.8629 273.715 94.3305 274.506C94.9344 275.538 95.6352 276.509 96.4234 277.408C98.1643 279.395 100.309 280.987 102.713 282.077C105.118 283.168 107.727 283.732 110.366 283.731H381.543C386.472 283.731 391.2 281.77 394.686 278.279C398.171 274.787 400.129 270.052 400.129 265.115C400.129 260.177 398.171 255.442 394.686 251.951C391.2 248.46 386.472 246.499 381.543 246.499H110.366C105.44 246.503 100.716 248.465 97.2319 251.954C93.7475 255.443 91.787 260.173 91.7803 265.108Z" fill="#E6E2EC"/>
<path d="M177 77L321 77V63L177 63V77Z" fill="#E6E6E6"/>
<path d="M0 276C5.22068 283.111 10.8674 289.794 16.8989 296H427.101C433.133 289.794 438.779 283.111 444 276H0Z" fill="#CEC8D7"/>
<path d="M128.315 208.544V279.733H178.107V208.544C178.108 208.032 177.945 207.533 177.642 207.121C177.339 206.709 176.912 206.405 176.423 206.254C176.193 206.177 175.952 206.14 175.71 206.142H130.72C130.405 206.142 130.092 206.203 129.801 206.324C129.509 206.444 129.244 206.621 129.021 206.844C128.798 207.067 128.62 207.332 128.499 207.624C128.378 207.915 128.316 208.228 128.315 208.544ZM147.747 233.005C147.76 231.601 148.326 230.26 149.321 229.272C150.317 228.284 151.661 227.73 153.062 227.73C154.464 227.73 155.808 228.284 156.804 229.272C157.799 230.26 158.365 231.601 158.378 233.005V241.265C158.37 242.672 157.807 244.019 156.811 245.012C155.815 246.004 154.467 246.562 153.062 246.562C151.657 246.562 150.309 246.004 149.313 245.012C148.317 244.019 147.754 242.672 147.747 241.265V233.005Z" fill="#2F2E41"/>
<path d="M128.163 277.456V284.321C128.164 284.676 128.305 285.017 128.556 285.269C128.806 285.521 129.146 285.665 129.501 285.667H176.922C177.278 285.666 177.618 285.523 177.869 285.271C178.119 285.018 178.26 284.677 178.26 284.321V277.456H128.163Z" fill="#3F3D56"/>
<path d="M49.9863 101.289V231.269C49.9876 232.926 50.6452 234.514 51.8145 235.685C52.9839 236.857 54.5696 237.515 56.2233 237.517H248.53C250.184 237.515 251.769 236.857 252.939 235.685C254.108 234.514 254.766 232.926 254.767 231.269V101.289C254.763 99.6337 254.104 98.0478 252.935 96.8782C251.766 95.7086 250.182 95.0507 248.53 95.0486H56.2233C54.571 95.0507 52.9869 95.7086 51.8179 96.8782C50.6489 98.0478 49.9903 99.6337 49.9863 101.289Z" fill="#3F3D56"/>
<path d="M54.4971 102.906V229.666C54.4986 230.551 54.8503 231.4 55.475 232.025C56.0998 232.651 56.9468 233.003 57.8304 233.005H246.928C247.812 233.003 248.659 232.651 249.284 232.025C249.909 231.4 250.26 230.551 250.262 229.666V102.906C250.262 102.02 249.911 101.17 249.286 100.543C248.661 99.9158 247.813 99.5625 246.928 99.5605H57.8304C56.9457 99.5625 56.098 99.9158 55.4731 100.543C54.8482 101.17 54.4972 102.02 54.4971 102.906Z" fill="#E6E6E6"/>
<path d="M93.0553 287.285C93.2478 287.527 93.4924 287.722 93.7709 287.855C94.0493 287.989 94.3544 288.057 94.6631 288.056H207.164C207.472 288.055 207.776 287.986 208.053 287.853C208.331 287.721 208.576 287.528 208.769 287.288C208.963 287.049 209.101 286.769 209.174 286.47C209.246 286.17 209.251 285.858 209.188 285.557L207.441 277.248C207.369 276.909 207.213 276.594 206.988 276.331C206.763 276.068 206.476 275.865 206.152 275.742C205.918 275.65 205.669 275.603 205.418 275.603H96.4025C96.1511 275.603 95.9019 275.65 95.6679 275.742C95.3447 275.865 95.0574 276.068 94.8323 276.331C94.6071 276.594 94.4513 276.909 94.3789 277.248L92.6326 285.557C92.5704 285.858 92.5761 286.17 92.6492 286.469C92.7224 286.768 92.8611 287.046 93.0553 287.285Z" fill="#2F2E41"/>
<path d="M201.492 279.182H204.281C204.468 279.182 204.619 279.03 204.619 278.843V277.438C204.619 277.251 204.468 277.099 204.281 277.099H201.492C201.306 277.099 201.154 277.251 201.154 277.438V278.843C201.154 279.03 201.306 279.182 201.492 279.182Z" fill="#3F3D56"/>
<path d="M194.563 279.182H197.351C197.538 279.182 197.689 279.03 197.689 278.843V277.438C197.689 277.251 197.538 277.099 197.351 277.099H194.563C194.376 277.099 194.224 277.251 194.224 277.438V278.843C194.224 279.03 194.376 279.182 194.563 279.182Z" fill="#3F3D56"/>
<path d="M187.632 279.182H190.42C190.607 279.182 190.759 279.03 190.759 278.843V277.438C190.759 277.251 190.607 277.099 190.42 277.099H187.632C187.445 277.099 187.294 277.251 187.294 277.438V278.843C187.294 279.03 187.445 279.182 187.632 279.182Z" fill="#3F3D56"/>
<path d="M180.702 279.182H183.491C183.678 279.182 183.829 279.03 183.829 278.843V277.438C183.829 277.251 183.678 277.099 183.491 277.099H180.702C180.516 277.099 180.364 277.251 180.364 277.438V278.843C180.364 279.03 180.516 279.182 180.702 279.182Z" fill="#3F3D56"/>
<path d="M173.773 279.182H176.561C176.748 279.182 176.899 279.03 176.899 278.843V277.438C176.899 277.251 176.748 277.099 176.561 277.099H173.773C173.586 277.099 173.434 277.251 173.434 277.438V278.843C173.434 279.03 173.586 279.182 173.773 279.182Z" fill="#3F3D56"/>
<path d="M166.843 279.182H169.631C169.818 279.182 169.97 279.03 169.97 278.843V277.438C169.97 277.251 169.818 277.099 169.631 277.099H166.843C166.656 277.099 166.505 277.251 166.505 277.438V278.843C166.505 279.03 166.656 279.182 166.843 279.182Z" fill="#3F3D56"/>
<path d="M159.912 279.182H162.701C162.888 279.182 163.039 279.03 163.039 278.843V277.438C163.039 277.251 162.888 277.099 162.701 277.099H159.912C159.726 277.099 159.574 277.251 159.574 277.438V278.843C159.574 279.03 159.726 279.182 159.912 279.182Z" fill="#3F3D56"/>
<path d="M152.983 279.182H155.771C155.958 279.182 156.109 279.03 156.109 278.843V277.438C156.109 277.251 155.958 277.099 155.771 277.099H152.983C152.796 277.099 152.644 277.251 152.644 277.438V278.843C152.644 279.03 152.796 279.182 152.983 279.182Z" fill="#3F3D56"/>
<path d="M146.053 279.182H148.841C149.028 279.182 149.18 279.03 149.18 278.843V277.438C149.18 277.251 149.028 277.099 148.841 277.099H146.053C145.866 277.099 145.715 277.251 145.715 277.438V278.843C145.715 279.03 145.866 279.182 146.053 279.182Z" fill="#3F3D56"/>
<path d="M139.122 279.182H141.911C142.098 279.182 142.249 279.03 142.249 278.843V277.438C142.249 277.251 142.098 277.099 141.911 277.099H139.122C138.936 277.099 138.784 277.251 138.784 277.438V278.843C138.784 279.03 138.936 279.182 139.122 279.182Z" fill="#3F3D56"/>
<path d="M132.193 279.182H134.981C135.168 279.182 135.319 279.03 135.319 278.843V277.438C135.319 277.251 135.168 277.099 134.981 277.099H132.193C132.006 277.099 131.854 277.251 131.854 277.438V278.843C131.854 279.03 132.006 279.182 132.193 279.182Z" fill="#3F3D56"/>
<path d="M125.263 279.182H128.051C128.238 279.182 128.39 279.03 128.39 278.843V277.438C128.39 277.251 128.238 277.099 128.051 277.099H125.263C125.076 277.099 124.925 277.251 124.925 277.438V278.843C124.925 279.03 125.076 279.182 125.263 279.182Z" fill="#3F3D56"/>
<path d="M118.333 279.182H121.122C121.308 279.182 121.46 279.03 121.46 278.843V277.438C121.46 277.251 121.308 277.099 121.122 277.099H118.333C118.146 277.099 117.995 277.251 117.995 277.438V278.843C117.995 279.03 118.146 279.182 118.333 279.182Z" fill="#3F3D56"/>
<path d="M111.403 279.182H114.191C114.378 279.182 114.529 279.03 114.529 278.843V277.438C114.529 277.251 114.378 277.099 114.191 277.099H111.403C111.216 277.099 111.064 277.251 111.064 277.438V278.843C111.064 279.03 111.216 279.182 111.403 279.182Z" fill="#3F3D56"/>
<path d="M104.473 279.182H107.261C107.448 279.182 107.6 279.03 107.6 278.843V277.438C107.6 277.251 107.448 277.099 107.261 277.099H104.473C104.286 277.099 104.135 277.251 104.135 277.438V278.843C104.135 279.03 104.286 279.182 104.473 279.182Z" fill="#3F3D56"/>
<path d="M97.5433 279.182H100.332C100.518 279.182 100.67 279.03 100.67 278.843V277.438C100.67 277.251 100.518 277.099 100.332 277.099H97.5433C97.3564 277.099 97.2049 277.251 97.2049 277.438V278.843C97.2049 279.03 97.3564 279.182 97.5433 279.182Z" fill="#3F3D56"/>
<path d="M201.574 282.652H204.363C204.55 282.652 204.701 282.501 204.701 282.314V280.909C204.701 280.722 204.55 280.57 204.363 280.57H201.574C201.388 280.57 201.236 280.722 201.236 280.909V282.314C201.236 282.501 201.388 282.652 201.574 282.652Z" fill="#3F3D56"/>
<path d="M194.645 282.652H197.433C197.62 282.652 197.771 282.501 197.771 282.314V280.909C197.771 280.722 197.62 280.57 197.433 280.57H194.645C194.458 280.57 194.306 280.722 194.306 280.909V282.314C194.306 282.501 194.458 282.652 194.645 282.652Z" fill="#3F3D56"/>
<path d="M187.714 282.652H190.503C190.689 282.652 190.841 282.501 190.841 282.314V280.909C190.841 280.722 190.689 280.57 190.503 280.57H187.714C187.527 280.57 187.376 280.722 187.376 280.909V282.314C187.376 282.501 187.527 282.652 187.714 282.652Z" fill="#3F3D56"/>
<path d="M180.784 282.652H183.573C183.76 282.652 183.911 282.501 183.911 282.314V280.909C183.911 280.722 183.76 280.57 183.573 280.57H180.784C180.598 280.57 180.446 280.722 180.446 280.909V282.314C180.446 282.501 180.598 282.652 180.784 282.652Z" fill="#3F3D56"/>
<path d="M173.855 282.652H176.643C176.83 282.652 176.981 282.501 176.981 282.314V280.909C176.981 280.722 176.83 280.57 176.643 280.57H173.855C173.668 280.57 173.516 280.722 173.516 280.909V282.314C173.516 282.501 173.668 282.652 173.855 282.652Z" fill="#3F3D56"/>
<path d="M166.924 282.652H169.712C169.899 282.652 170.051 282.501 170.051 282.314V280.909C170.051 280.722 169.899 280.57 169.712 280.57H166.924C166.737 280.57 166.586 280.722 166.586 280.909V282.314C166.586 282.501 166.737 282.652 166.924 282.652Z" fill="#3F3D56"/>
<path d="M159.994 282.652H162.783C162.97 282.652 163.121 282.501 163.121 282.314V280.909C163.121 280.722 162.97 280.57 162.783 280.57H159.994C159.808 280.57 159.656 280.722 159.656 280.909V282.314C159.656 282.501 159.808 282.652 159.994 282.652Z" fill="#3F3D56"/>
<path d="M153.065 282.652H155.853C156.04 282.652 156.191 282.501 156.191 282.314V280.909C156.191 280.722 156.04 280.57 155.853 280.57H153.065C152.878 280.57 152.726 280.722 152.726 280.909V282.314C152.726 282.501 152.878 282.652 153.065 282.652Z" fill="#3F3D56"/>
<path d="M146.135 282.652H148.923C149.11 282.652 149.262 282.501 149.262 282.314V280.909C149.262 280.722 149.11 280.57 148.923 280.57H146.135C145.948 280.57 145.797 280.722 145.797 280.909V282.314C145.797 282.501 145.948 282.652 146.135 282.652Z" fill="#3F3D56"/>
<path d="M139.204 282.652H141.993C142.18 282.652 142.331 282.501 142.331 282.314V280.909C142.331 280.722 142.18 280.57 141.993 280.57H139.204C139.018 280.57 138.866 280.722 138.866 280.909V282.314C138.866 282.501 139.018 282.652 139.204 282.652Z" fill="#3F3D56"/>
<path d="M132.275 282.652H135.063C135.25 282.652 135.401 282.501 135.401 282.314V280.909C135.401 280.722 135.25 280.57 135.063 280.57H132.275C132.088 280.57 131.936 280.722 131.936 280.909V282.314C131.936 282.501 132.088 282.652 132.275 282.652Z" fill="#3F3D56"/>
<path d="M125.345 282.652H128.133C128.32 282.652 128.472 282.501 128.472 282.314V280.909C128.472 280.722 128.32 280.57 128.133 280.57H125.345C125.158 280.57 125.007 280.722 125.007 280.909V282.314C125.007 282.501 125.158 282.652 125.345 282.652Z" fill="#3F3D56"/>
<path d="M118.414 282.652H121.203C121.39 282.652 121.541 282.501 121.541 282.314V280.909C121.541 280.722 121.39 280.57 121.203 280.57H118.414C118.227 280.57 118.076 280.722 118.076 280.909V282.314C118.076 282.501 118.227 282.652 118.414 282.652Z" fill="#3F3D56"/>
<path d="M111.485 282.652H114.273C114.46 282.652 114.611 282.501 114.611 282.314V280.909C114.611 280.722 114.46 280.57 114.273 280.57H111.485C111.298 280.57 111.146 280.722 111.146 280.909V282.314C111.146 282.501 111.298 282.652 111.485 282.652Z" fill="#3F3D56"/>
<path d="M104.555 282.652H107.343C107.53 282.652 107.682 282.501 107.682 282.314V280.909C107.682 280.722 107.53 280.57 107.343 280.57H104.555C104.368 280.57 104.217 280.722 104.217 280.909V282.314C104.217 282.501 104.368 282.652 104.555 282.652Z" fill="#3F3D56"/>
<path d="M97.6253 282.652H100.414C100.6 282.652 100.752 282.501 100.752 282.314V280.909C100.752 280.722 100.6 280.57 100.414 280.57H97.6253C97.4384 280.57 97.287 280.722 97.287 280.909V282.314C97.287 282.501 97.4384 282.652 97.6253 282.652Z" fill="#3F3D56"/>
<path d="M144.056 286.817H171.099C171.286 286.817 171.438 286.665 171.438 286.478V285.073C171.438 284.886 171.286 284.735 171.099 284.735H144.056C143.869 284.735 143.718 284.886 143.718 285.073V286.478C143.718 286.665 143.869 286.817 144.056 286.817Z" fill="#3F3D56"/>
<path d="M67.3329 117.022H244.271C244.455 117.018 244.63 116.942 244.759 116.81C244.887 116.679 244.96 116.502 244.96 116.317C244.96 116.133 244.887 115.956 244.759 115.824C244.63 115.693 244.455 115.617 244.271 115.613H67.3329C67.1489 115.617 66.9739 115.693 66.8452 115.824C66.7166 115.956 66.6445 116.133 66.6445 116.317C66.6445 116.502 66.7166 116.679 66.8452 116.81C66.9739 116.942 67.1489 117.018 67.3329 117.022Z" fill="white"/>
<path d="M232.227 112.014C234.505 112.014 236.351 110.124 236.351 107.792C236.351 105.46 234.505 103.57 232.227 103.57C229.95 103.57 228.104 105.46 228.104 107.792C228.104 110.124 229.95 112.014 232.227 112.014Z" fill="white"/>
<path d="M217.981 112.014C220.258 112.014 222.105 110.124 222.105 107.792C222.105 105.46 220.258 103.57 217.981 103.57C215.704 103.57 213.857 105.46 213.857 107.792C213.857 110.124 215.704 112.014 217.981 112.014Z" fill="white"/>
<path d="M203.736 112.014C206.013 112.014 207.86 110.124 207.86 107.792C207.86 105.46 206.013 103.57 203.736 103.57C201.459 103.57 199.612 105.46 199.612 107.792C199.612 110.124 201.459 112.014 203.736 112.014Z" fill="white"/>
<path d="M75.1553 105.384C75.1548 105.484 75.174 105.583 75.2117 105.675C75.2494 105.768 75.3049 105.852 75.375 105.922C75.4452 105.993 75.5286 106.05 75.6205 106.088C75.7124 106.127 75.811 106.147 75.9107 106.148H86.0284C86.2284 106.143 86.4187 106.06 86.5585 105.917C86.6983 105.773 86.7765 105.581 86.7765 105.381C86.7765 105.18 86.6983 104.988 86.5585 104.844C86.4187 104.701 86.2284 104.618 86.0284 104.614H75.9107C75.7087 104.616 75.5159 104.698 75.3743 104.843C75.2328 104.987 75.1541 105.182 75.1553 105.384Z" fill="white"/>
<path d="M75.1553 108.265C75.1548 108.364 75.174 108.463 75.2117 108.556C75.2494 108.648 75.3049 108.732 75.375 108.803C75.4452 108.874 75.5286 108.93 75.6205 108.969C75.7124 109.008 75.811 109.028 75.9107 109.028H86.0284C86.2286 109.024 86.419 108.941 86.559 108.798C86.699 108.654 86.7774 108.462 86.7774 108.261C86.7774 108.061 86.699 107.868 86.559 107.725C86.419 107.581 86.2286 107.499 86.0284 107.494H75.9107C75.7087 107.497 75.5159 107.579 75.3743 107.723C75.2328 107.868 75.1541 108.062 75.1553 108.265Z" fill="white"/>
<path d="M75.1553 111.138C75.1541 111.341 75.2328 111.535 75.3743 111.68C75.5159 111.824 75.7087 111.906 75.9107 111.909H86.0284C86.2284 111.904 86.4187 111.821 86.5585 111.678C86.6983 111.535 86.7765 111.342 86.7765 111.142C86.7765 110.941 86.6983 110.749 86.5585 110.606C86.4187 110.462 86.2284 110.379 86.0284 110.375H75.9107C75.811 110.375 75.7124 110.395 75.6205 110.434C75.5286 110.473 75.4452 110.529 75.375 110.6C75.3049 110.671 75.2494 110.755 75.2117 110.847C75.174 110.94 75.1548 111.038 75.1553 111.138Z" fill="white"/>
<path d="M78.2828 133.401H74.6472C73.5449 133.401 72.6514 134.296 72.6514 135.4C72.6514 136.504 73.5449 137.399 74.6472 137.399H78.2828C79.385 137.399 80.2786 136.504 80.2786 135.4C80.2786 134.296 79.385 133.401 78.2828 133.401Z" fill="white"/>
<path d="M119.862 133.401H116.226C115.124 133.401 114.23 134.296 114.23 135.4C114.23 136.504 115.124 137.399 116.226 137.399H119.862C120.964 137.399 121.858 136.504 121.858 135.4C121.858 134.296 120.964 133.401 119.862 133.401Z" fill="white"/>
<path d="M131.643 133.401H128.008C126.905 133.401 126.012 134.296 126.012 135.4C126.012 136.504 126.905 137.399 128.008 137.399H131.643C132.745 137.399 133.639 136.504 133.639 135.4C133.639 134.296 132.745 133.401 131.643 133.401Z" fill="white"/>
<path d="M108.552 133.068H85.9567C84.8545 133.068 83.9609 133.963 83.9609 135.067C83.9609 136.171 84.8545 137.066 85.9567 137.066H108.552C109.655 137.066 110.548 136.171 110.548 135.067C110.548 133.963 109.655 133.068 108.552 133.068Z" fill="white"/>
<path d="M163.992 133.068H141.396C140.294 133.068 139.4 133.963 139.4 135.067C139.4 136.171 140.294 137.066 141.396 137.066H163.992C165.094 137.066 165.988 136.171 165.988 135.067C165.988 133.963 165.094 133.068 163.992 133.068Z" fill="#E6E6E6"/>
<path d="M89.3706 142.425H85.7351C84.6328 142.425 83.7393 143.32 83.7393 144.424C83.7393 145.528 84.6328 146.423 85.7351 146.423H89.3706C90.4729 146.423 91.3664 145.528 91.3664 144.424C91.3664 143.32 90.4729 142.425 89.3706 142.425Z" fill="white"/>
<path d="M130.95 142.425H127.314C126.212 142.425 125.318 143.32 125.318 144.424C125.318 145.528 126.212 146.423 127.314 146.423H130.95C132.052 146.423 132.946 145.528 132.946 144.424C132.946 143.32 132.052 142.425 130.95 142.425Z" fill="white"/>
<path d="M142.731 142.425H139.095C137.993 142.425 137.1 143.32 137.1 144.424C137.1 145.528 137.993 146.423 139.095 146.423H142.731C143.833 146.423 144.727 145.528 144.727 144.424C144.727 143.32 143.833 142.425 142.731 142.425Z" fill="#E6E6E6"/>
<path d="M119.64 142.091H97.0446C95.9424 142.091 95.0488 142.986 95.0488 144.09C95.0488 145.194 95.9424 146.089 97.0446 146.089H119.64C120.743 146.089 121.636 145.194 121.636 144.09C121.636 142.986 120.743 142.091 119.64 142.091Z" fill="white"/>
<path d="M175.08 142.091H152.484C151.382 142.091 150.488 142.986 150.488 144.09C150.488 145.194 151.382 146.089 152.484 146.089H175.08C176.182 146.089 177.076 145.194 177.076 144.09C177.076 142.986 176.182 142.091 175.08 142.091Z" fill="#E6E6E6"/>
<path d="M100.459 151.448H96.823C95.7207 151.448 94.8271 152.343 94.8271 153.447C94.8271 154.551 95.7207 155.446 96.823 155.446H100.459C101.561 155.446 102.454 154.551 102.454 153.447C102.454 152.343 101.561 151.448 100.459 151.448Z" fill="white"/>
<path d="M142.039 151.448H138.403C137.301 151.448 136.407 152.343 136.407 153.447C136.407 154.551 137.301 155.446 138.403 155.446H142.039C143.141 155.446 144.034 154.551 144.034 153.447C144.034 152.343 143.141 151.448 142.039 151.448Z" fill="#E6E6E6"/>
<path d="M153.819 151.448H150.183C149.081 151.448 148.188 152.343 148.188 153.447C148.188 154.551 149.081 155.446 150.183 155.446H153.819C154.921 155.446 155.815 154.551 155.815 153.447C155.815 152.343 154.921 151.448 153.819 151.448Z" fill="#E6E6E6"/>
<path d="M130.728 151.115H108.133C107.03 151.115 106.137 152.01 106.137 153.114C106.137 154.218 107.03 155.113 108.133 155.113H130.728C131.83 155.113 132.724 154.218 132.724 153.114C132.724 152.01 131.83 151.115 130.728 151.115Z" fill="white"/>
<path d="M186.168 151.115H163.572C162.47 151.115 161.576 152.01 161.576 153.114C161.576 154.218 162.47 155.113 163.572 155.113H186.168C187.27 155.113 188.163 154.218 188.163 153.114C188.163 152.01 187.27 151.115 186.168 151.115Z" fill="#E6E6E6"/>
<path d="M111.546 160.472H107.911C106.809 160.472 105.915 161.367 105.915 162.471C105.915 163.575 106.809 164.47 107.911 164.47H111.546C112.649 164.47 113.542 163.575 113.542 162.471C113.542 161.367 112.649 160.472 111.546 160.472Z" fill="white"/>
<path d="M153.127 160.472H149.491C148.389 160.472 147.495 161.367 147.495 162.471C147.495 163.575 148.389 164.47 149.491 164.47H153.127C154.229 164.47 155.122 163.575 155.122 162.471C155.122 161.367 154.229 160.472 153.127 160.472Z" fill="#E6E6E6"/>
<path d="M164.907 160.472H161.271C160.169 160.472 159.275 161.367 159.275 162.471C159.275 163.575 160.169 164.47 161.271 164.47H164.907C166.009 164.47 166.903 163.575 166.903 162.471C166.903 161.367 166.009 160.472 164.907 160.472Z" fill="#E6E6E6"/>
<path d="M141.816 160.138H119.22C118.118 160.138 117.225 161.033 117.225 162.137C117.225 163.242 118.118 164.136 119.22 164.136H141.816C142.918 164.136 143.812 163.242 143.812 162.137C143.812 161.033 142.918 160.138 141.816 160.138Z" fill="white"/>
<path d="M119.862 196.353H116.226C115.124 196.353 114.23 197.248 114.23 198.352C114.23 199.456 115.124 200.351 116.226 200.351H119.862C120.964 200.351 121.858 199.456 121.858 198.352C121.858 197.248 120.964 196.353 119.862 196.353Z" fill="white"/>
<path d="M131.643 196.353H128.008C126.905 196.353 126.012 197.248 126.012 198.352C126.012 199.456 126.905 200.351 128.008 200.351H131.643C132.745 200.351 133.639 199.456 133.639 198.352C133.639 197.248 132.745 196.353 131.643 196.353Z" fill="white"/>
<path d="M163.992 196.687H141.396C140.294 196.687 139.4 197.582 139.4 198.686C139.4 199.79 140.294 200.685 141.396 200.685H163.992C165.094 200.685 165.988 199.79 165.988 198.686C165.988 197.582 165.094 196.687 163.992 196.687Z" fill="#E6E6E6"/>
<path d="M78.2828 196.353H74.6472C73.5449 196.353 72.6514 197.248 72.6514 198.352C72.6514 199.456 73.5449 200.351 74.6472 200.351H78.2828C79.385 200.351 80.2786 199.456 80.2786 198.352C80.2786 197.248 79.385 196.353 78.2828 196.353Z" fill="white"/>
<path d="M108.552 196.687H85.9567C84.8545 196.687 83.9609 197.582 83.9609 198.686C83.9609 199.79 84.8545 200.685 85.9567 200.685H108.552C109.655 200.685 110.548 199.79 110.548 198.686C110.548 197.582 109.655 196.687 108.552 196.687Z" fill="white"/>
<path d="M89.3706 187.33H85.7351C84.6328 187.33 83.7393 188.225 83.7393 189.329C83.7393 190.433 84.6328 191.328 85.7351 191.328H89.3706C90.4729 191.328 91.3664 190.433 91.3664 189.329C91.3664 188.225 90.4729 187.33 89.3706 187.33Z" fill="white"/>
<path d="M130.95 187.33H127.314C126.212 187.33 125.318 188.225 125.318 189.329C125.318 190.433 126.212 191.328 127.314 191.328H130.95C132.052 191.328 132.946 190.433 132.946 189.329C132.946 188.225 132.052 187.33 130.95 187.33Z" fill="white"/>
<path d="M142.731 187.33H139.095C137.993 187.33 137.1 188.225 137.1 189.329C137.1 190.433 137.993 191.328 139.095 191.328H142.731C143.833 191.328 144.727 190.433 144.727 189.329C144.727 188.225 143.833 187.33 142.731 187.33Z" fill="#E6E6E6"/>
<path d="M119.64 187.663H97.0446C95.9424 187.663 95.0488 188.558 95.0488 189.662C95.0488 190.766 95.9424 191.661 97.0446 191.661H119.64C120.743 191.661 121.636 190.766 121.636 189.662C121.636 188.558 120.743 187.663 119.64 187.663Z" fill="white"/>
<path d="M100.459 178.306H96.823C95.7207 178.306 94.8271 179.201 94.8271 180.305C94.8271 181.409 95.7207 182.304 96.823 182.304H100.459C101.561 182.304 102.454 181.409 102.454 180.305C102.454 179.201 101.561 178.306 100.459 178.306Z" fill="white"/>
<path d="M142.039 178.306H138.403C137.301 178.306 136.407 179.201 136.407 180.305C136.407 181.409 137.301 182.304 138.403 182.304H142.039C143.141 182.304 144.034 181.409 144.034 180.305C144.034 179.201 143.141 178.306 142.039 178.306Z" fill="#E6E6E6"/>
<path d="M153.819 178.306H150.183C149.081 178.306 148.188 179.201 148.188 180.305C148.188 181.409 149.081 182.304 150.183 182.304H153.819C154.921 182.304 155.815 181.409 155.815 180.305C155.815 179.201 154.921 178.306 153.819 178.306Z" fill="#E6E6E6"/>
<path d="M130.728 178.639H108.133C107.03 178.639 106.137 179.534 106.137 180.638C106.137 181.742 107.03 182.637 108.133 182.637H130.728C131.83 182.637 132.724 181.742 132.724 180.638C132.724 179.534 131.83 178.639 130.728 178.639Z" fill="white"/>
<path d="M111.546 169.282H107.911C106.809 169.282 105.915 170.177 105.915 171.282C105.915 172.386 106.809 173.281 107.911 173.281H111.546C112.649 173.281 113.542 172.386 113.542 171.282C113.542 170.177 112.649 169.282 111.546 169.282Z" fill="white"/>
<path d="M153.127 169.282H149.491C148.389 169.282 147.495 170.177 147.495 171.282C147.495 172.386 148.389 173.281 149.491 173.281H153.127C154.229 173.281 155.122 172.386 155.122 171.282C155.122 170.177 154.229 169.282 153.127 169.282Z" fill="#E6E6E6"/>
<path d="M164.907 169.282H161.271C160.169 169.282 159.275 170.177 159.275 171.282C159.275 172.386 160.169 173.281 161.271 173.281H164.907C166.009 173.281 166.903 172.386 166.903 171.282C166.903 170.177 166.009 169.282 164.907 169.282Z" fill="#E6E6E6"/>
<path d="M141.816 169.616H119.22C118.118 169.616 117.225 170.511 117.225 171.615C117.225 172.719 118.118 173.614 119.22 173.614H141.816C142.918 173.614 143.812 172.719 143.812 171.615C143.812 170.511 142.918 169.616 141.816 169.616Z" fill="white"/>
<path d="M65.2109 326.711C65.6337 326.926 66.0633 327.141 66.486 327.349C77.4354 332.833 86.1948 335.949 98.1768 339.365C99.1886 328.05 100.166 308.164 101.115 295.836C101.365 292.636 101.614 289.95 101.857 288.055C101.918 287.048 102.123 286.054 102.466 285.105L102.425 288.055L102.321 295.836L101.718 340.336C116.623 344.286 131.933 346.497 147.345 346.924C148.149 346.944 148.939 346.958 149.701 346.972C149.971 346.979 150.235 346.986 150.498 346.986C151.364 346.993 152.224 347 153.09 347C169.331 347.012 185.513 345.047 201.281 341.148C200.941 329.952 200.602 310.288 200.276 295.836C200.207 293.011 200.144 290.381 200.075 288.055C199.943 283.085 199.805 279.504 199.673 278.303C199.79 278.516 199.881 278.742 199.943 278.976C200.585 281.969 201.023 285.003 201.253 288.055C201.496 290.381 201.738 293.011 201.981 295.836C203.27 310.85 204.614 331.264 206 339.92C214.25 337.664 222.345 334.875 230.234 331.57C234.392 329.834 238.476 327.962 242.486 325.954C241.724 320.956 240.927 315.355 240.11 309.545C239.472 305.04 238.814 300.411 238.141 295.836C237.102 288.77 221.655 239.391 220.678 237.516C219.839 235.913 219.042 234.4 218.287 233.005C216.458 229.617 214.905 226.917 213.755 225.21C208.945 217.903 201.786 212.463 193.464 209.793L193.256 209.738L193.111 209.8L178.939 205.441L176.867 204.803L175.474 204.372L170.567 200.631L167.899 198.597L165.398 196.688L160.505 192.961L130.214 194.828L124.317 209.051L111.108 213.889L110.879 213.785L110.679 213.701L110.471 213.757C102.15 216.429 94.9912 221.868 90.1797 229.173C89.5283 230.152 88.7383 231.443 87.8443 233.005C87.082 234.33 86.2504 235.844 85.3495 237.516C84.0674 239.897 82.6676 242.584 81.1846 245.492C80.8589 246.13 80.5262 246.783 80.1936 247.442C79.5768 248.664 78.9508 249.911 78.3156 251.184C76.8395 254.134 75.3149 257.216 73.7903 260.346C72.4667 263.06 71.1292 268.641 69.8125 275.742C68.7245 281.642 67.6434 288.597 66.597 295.836C65.2249 305.221 66.6871 316.459 65.4466 325.093C65.3703 325.642 65.2872 326.176 65.2109 326.711Z" fill="#486EDD"/>
<path opacity="0.2" d="M210.387 275.711L204.498 252.95L199.299 272.591L210.387 275.711Z" fill="black"/>
<path d="M53.6934 260.881C55.8001 289.95 53.6171 302.75 65.2456 326.718C75.8259 331.905 86.8465 336.137 98.1768 339.365C99.3549 339.698 100.535 340.022 101.718 340.337C116.623 344.287 131.933 346.497 147.345 346.924C148.149 346.945 148.939 346.958 149.701 346.972C149.971 346.979 150.235 346.986 150.498 346.986C151.364 346.993 152.224 347 153.09 347C169.331 347.012 185.513 345.047 201.281 341.149C202.861 340.76 204.434 340.35 206 339.92C214.25 337.664 222.345 334.875 230.234 331.57C234.392 329.835 238.476 327.963 242.487 325.954C243.394 325.496 244.302 325.038 245.196 324.566C249.791 316.473 252.403 306.63 252.459 294.802C249.278 274.423 60.7203 243.306 53.6934 260.881Z" fill="#2F2E41"/>
<path opacity="0.2" d="M53.6993 265.859C53.5917 264.059 53.4714 262.2 53.3311 260.265C60.358 242.689 248.916 273.807 252.096 294.186C252.088 296.055 252.008 297.868 251.874 299.638C244.171 279.524 65.0385 249.949 53.6993 265.859Z" fill="black"/>
<path d="M289.133 275.447C289.438 276.338 290.017 277.108 290.787 277.648C291.557 278.188 292.478 278.47 293.418 278.453L311.776 277.98C312.723 277.962 313.638 277.637 314.385 277.054C315.132 276.472 315.671 275.662 315.921 274.748L318.519 246.922C319.441 247.341 320.444 247.547 321.456 247.527C323.23 247.481 324.914 246.731 326.136 245.443C327.359 244.154 328.021 242.432 327.977 240.655C327.932 238.877 327.185 237.191 325.899 235.965C324.613 234.739 322.894 234.075 321.12 234.119C320.715 234.117 320.312 234.159 319.917 234.244C319.487 233.778 318.964 233.407 318.382 233.156C317.8 232.905 317.172 232.778 316.539 232.784L288.299 233.515C288.065 233.523 287.832 233.552 287.602 233.601C286.983 233.717 286.396 233.964 285.88 234.326C285.364 234.688 284.931 235.157 284.611 235.701C284.291 236.244 284.091 236.85 284.025 237.477C283.958 238.105 284.026 238.739 284.225 239.338L289.133 275.447ZM319.052 245.033L320.9 238.402C321.111 237.636 321.116 236.828 320.915 236.06C321.004 236.06 321.083 236.017 321.173 236.017C322.441 235.991 323.667 236.469 324.583 237.347C325.499 238.225 326.03 239.431 326.06 240.7C326.089 241.97 325.615 243.199 324.741 244.119C323.867 245.039 322.665 245.574 321.397 245.608C320.578 245.633 319.767 245.435 319.052 245.033Z" fill="#E7D431"/>
<path d="M287.603 233.602C288.204 237.047 294.968 239.47 303.102 239.048C310.581 238.703 316.697 236.073 317.817 232.955C317.403 232.832 316.971 232.775 316.539 232.785L288.299 233.515C288.065 233.524 287.832 233.553 287.603 233.602Z" fill="#B4A528"/>
<path d="M304.593 260.157C304.63 260.148 304.665 260.132 304.697 260.111L308.684 257.497C308.732 257.466 308.772 257.423 308.799 257.372C308.827 257.321 308.841 257.265 308.841 257.207C308.841 257.15 308.827 257.093 308.799 257.042C308.772 256.991 308.732 256.948 308.684 256.917L304.54 254.198C304.502 254.173 304.46 254.156 304.415 254.147C304.37 254.138 304.324 254.139 304.279 254.148C304.235 254.157 304.192 254.175 304.155 254.201C304.117 254.226 304.085 254.259 304.06 254.297C304.035 254.336 304.017 254.378 304.009 254.423C304 254.468 304.001 254.514 304.01 254.559C304.02 254.604 304.038 254.646 304.064 254.684C304.089 254.721 304.122 254.754 304.161 254.778L307.862 257.207L304.318 259.53C304.249 259.575 304.199 259.643 304.175 259.722C304.152 259.801 304.157 259.885 304.19 259.96C304.223 260.035 304.282 260.097 304.355 260.133C304.429 260.169 304.513 260.177 304.593 260.157Z" fill="#6C63FF"/>
<path d="M298.296 260.448C298.363 260.431 298.423 260.395 298.469 260.343C298.515 260.291 298.545 260.227 298.554 260.159C298.564 260.09 298.552 260.021 298.522 259.959C298.491 259.897 298.443 259.845 298.383 259.811L294.708 257.7L298.26 255.058C298.297 255.03 298.328 254.996 298.351 254.957C298.374 254.918 298.39 254.875 298.396 254.83C298.403 254.785 298.401 254.739 298.39 254.695C298.379 254.65 298.359 254.609 298.332 254.572C298.305 254.536 298.271 254.505 298.232 254.482C298.193 254.458 298.149 254.443 298.104 254.436C298.059 254.429 298.014 254.432 297.969 254.443C297.925 254.454 297.884 254.474 297.847 254.501L293.871 257.46C293.824 257.494 293.787 257.539 293.763 257.591C293.739 257.644 293.728 257.701 293.731 257.759C293.734 257.816 293.752 257.872 293.782 257.921C293.813 257.97 293.855 258.01 293.905 258.039L298.039 260.413C298.116 260.458 298.209 260.47 298.296 260.448Z" fill="#6C63FF"/>
<path d="M304.196 262.448C304.229 262.439 304.261 262.426 304.291 262.408C304.33 262.384 304.364 262.353 304.391 262.316C304.417 262.279 304.437 262.238 304.448 262.193C304.458 262.149 304.46 262.103 304.453 262.058C304.446 262.013 304.431 261.97 304.407 261.931L298.755 252.624C298.707 252.546 298.63 252.49 298.541 252.468C298.452 252.447 298.358 252.461 298.28 252.509C298.201 252.557 298.145 252.634 298.123 252.723C298.101 252.812 298.116 252.906 298.163 252.985L303.815 262.292C303.853 262.355 303.911 262.405 303.98 262.433C304.048 262.461 304.124 262.466 304.196 262.448Z" fill="#6C63FF"/>
<path d="M420 223H370V278H420V223Z" fill="#29CC6A"/>
<path d="M121.485 158.492C122.444 168.927 126.074 178.354 131.578 184.7C137.081 191.046 144.007 193.793 150.834 192.337C157.661 190.881 163.831 185.341 167.988 176.934C172.145 168.528 173.949 157.943 173.003 147.504L172.952 146.94C171.852 136.642 168.148 127.419 162.639 121.258C157.13 115.098 150.258 112.495 143.505 114.011C136.752 115.526 130.659 121.039 126.541 129.36C122.424 137.681 120.61 148.144 121.493 158.49L121.485 158.492Z" fill="#FFB6B6"/>
<path d="M152.161 185.777C150.098 181.181 159.806 187.146 159.806 181.178C166.373 184.244 173.291 176.579 173.291 169.397C175.945 170.291 177.894 167.244 180.667 167.382C184.481 167.572 186.297 160.285 187.472 156.268L189.17 148.221C192.355 148.221 192.008 137.51 187.472 137.51C191.957 136.359 186.549 130.808 189.17 126.622C191.79 122.436 191.755 115.957 188.134 112.813C186.358 111.271 184 110.691 182.302 109.045C181.249 108.024 180.522 106.655 180.227 105.142C179.933 103.628 180.087 102.049 180.667 100.64C181.246 99.2302 182.221 98.0645 183.447 97.3152C184.673 96.5658 186.084 96.2726 187.472 96.479L175.294 94.842L178.899 87.5762C176.292 89.8636 172.656 90.1833 169.379 89.5435C166.102 88.9037 163.013 87.4243 159.806 86.4419C144.411 81.7259 126.561 90.0909 118.92 105.602C115.921 104.507 112.692 104.446 109.661 105.425C106.63 106.405 103.939 108.38 101.946 111.089C98.7015 115.673 97.8338 121.779 97.7252 127.599C97.5229 139.075 99.8204 150.436 104.424 160.724C105.858 163.921 116.481 176.157 118.92 178.496C121.359 180.834 139.991 184.691 143.172 184.08" fill="#2F2E41"/>
</g>
<defs>
<clipPath id="clip0_795_51490">
<rect width="444" height="347" fill="white"/>
</clipPath>
</defs>
</svg>
