<svg height="884" viewBox="0 0 955 884" width="955" xmlns="http://www.w3.org/2000/svg"><path d="m579.963163 3327.23021c53.171166 6.8302 106.801034 7.8499 160.304984 9.89829 24.531544.93885 48.579652-.19091 71.229171 8.59784 21.203708 8.23173 38.137444 24.7536 60.017962 31.83536 16.983204 5.49382 35.299791 5.3029 53.036254 3.28596 75.017957-8.52597 145.640026-50.25738 189.245906-111.82581 39.93628-56.38907 56.61143-128.54308 46.14899-196.76204-6.34313-41.37654-25.40398-79.96349-29.97526-121.65448-4.82985-44.07403 12.02293-82.49927 22.66976-124.41261 7.42692-29.22547 10.67156-59.50882 9.60575-89.64393-.6161-17.35964-2.79943-35.15501-11.02008-50.46401-22.33697-41.57868-78.65609-49.4241-125.66402-44.73886-58.1854 5.80152-116.235893 23.73165-167.426098 51.96661-40.41971 22.29419-80.452671 54.74721-126.84 63.5427-52.305479 9.92076-92.763415-25.8856-139.836547-42.21655-105.91511-36.74521-233.791687 35.43576-280.482568 131.43822-57.641259 118.51452-51.080026 312.3904 56.8093 400.34305 58.794759 47.93048 134.556981 70.58404 209.795294 80.49806.793734.10556 1.587468.20888 2.381202.3122" fill="#3a30db" fill-rule="evenodd" opacity=".102604" transform="matrix(-.70710678 -.70710678 .70710678 -.70710678 -1081.79154 3103.75647)"/></svg>