<svg height="38" viewBox="0 0 38 38" width="38" xmlns="http://www.w3.org/2000/svg" xmlns:xlink="http://www.w3.org/1999/xlink"><linearGradient id="a" gradientUnits="objectBoundingBox" x1="1.892" x2="1.486" y1="1.832" y2="1"><stop offset="0" stop-color="#3a30db"/><stop offset="1" stop-color="#f39"/></linearGradient><path d="m32.879 0h-27.758a5.121 5.121 0 0 0 -5.121 5.121v27.758a5.121 5.121 0 0 0 5.121 5.121h13.69l.023-13.579h-3.527a.832.832 0 0 1 -.832-.829l-.017-4.377a.832.832 0 0 1 .832-.836h3.521v-4.23c0-4.908 3-7.581 7.376-7.581h3.593a.833.833 0 0 1 .832.832v3.691a.833.833 0 0 1 -.832.832h-2.2c-2.381 0-2.842 1.131-2.842 2.792v3.662h5.232a.832.832 0 0 1 .827.93l-.519 4.377a.832.832 0 0 1 -.827.734h-4.69l-.028 13.582h8.146a5.121 5.121 0 0 0 5.121-5.12v-27.759a5.121 5.121 0 0 0 -5.121-5.121" fill="url(#a)"/></svg>