<svg width="345" height="216" viewBox="0 0 345 216" fill="none" xmlns="http://www.w3.org/2000/svg">
<g clip-path="url(#clip0_794_51421)">
<path d="M7.64886 189.275H235.755C237.783 189.275 239.729 188.459 241.163 187.007C242.597 185.554 243.403 183.584 243.403 181.529C160.715 171.797 79.5806 171.797 0.000333011 181.529C0.000333011 183.584 0.806155 185.554 2.24053 187.007C3.6749 188.459 5.62035 189.275 7.64886 189.275Z" fill="#2F2E41"/>
<path d="M0.000333011 182.29L243.403 181.839L215.194 134.258L215.059 134.033V29.1705C215.059 27.8977 214.809 26.6374 214.323 25.4614C213.837 24.2855 213.125 23.217 212.227 22.317C211.329 21.417 210.263 20.7031 209.09 20.2161C207.917 19.729 206.66 19.4784 205.39 19.4785H39.3632C38.0935 19.4784 36.8362 19.729 35.6631 20.2161C34.49 20.7031 33.4241 21.417 32.5263 22.317C31.6284 23.217 30.9162 24.2855 30.4304 25.4614C29.9445 26.6374 29.6945 27.8977 29.6946 29.1705V134.754L0.000333011 182.29Z" fill="#3F3D56"/>
<path d="M205.856 26.4639C206.693 26.4648 207.496 26.7965 208.088 27.3862C208.681 27.9759 209.014 28.7754 209.015 29.6094V124.874C209.014 125.708 208.681 126.507 208.088 127.097C207.496 127.687 206.693 128.019 205.856 128.019H37.5464C36.709 128.018 35.9062 127.687 35.3141 127.097C34.7219 126.507 34.3888 125.708 34.3878 124.874V29.6094C34.3888 28.7754 34.7219 27.9759 35.314 27.3862C35.9061 26.7966 36.709 26.4648 37.5464 26.4639H205.856Z" fill="#E6E6E6"/>
<path d="M204.89 140.915C205.148 140.916 205.4 140.99 205.617 141.128C205.835 141.267 206.007 141.464 206.116 141.697L214.802 160.504C214.897 160.709 214.938 160.934 214.923 161.158C214.907 161.383 214.835 161.6 214.713 161.79C214.591 161.98 214.423 162.136 214.224 162.244C214.026 162.352 213.803 162.409 213.577 162.409H30.9014C30.6715 162.409 30.4453 162.35 30.2445 162.239C30.0437 162.127 29.8748 161.966 29.754 161.771C29.6331 161.577 29.5643 161.354 29.554 161.126C29.5437 160.897 29.5923 160.669 29.6952 160.465L39.1373 141.658C39.2487 141.434 39.4207 141.246 39.6339 141.115C39.847 140.984 40.0928 140.915 40.3435 140.915H204.89Z" fill="#2F2E41"/>
<path d="M122.507 24.8519C121.32 24.8519 120.358 23.8896 120.358 22.7025C120.358 21.5155 121.32 20.5532 122.507 20.5532C123.694 20.5532 124.656 21.5155 124.656 22.7025C124.656 23.8896 123.694 24.8519 122.507 24.8519Z" fill="#D1CCD7"/>
<path d="M140.478 165.633C140.774 165.633 141.062 165.735 141.297 165.924C141.532 166.113 141.701 166.377 141.778 166.676L143.954 175.139C144.007 175.348 144.015 175.568 143.974 175.78C143.934 175.992 143.848 176.192 143.722 176.364C143.597 176.536 143.435 176.675 143.25 176.771C143.064 176.867 142.86 176.917 142.654 176.917H101.287C101.072 176.917 100.86 176.863 100.67 176.76C100.479 176.657 100.314 176.507 100.19 176.324C100.065 176.141 99.9844 175.929 99.9539 175.707C99.9235 175.484 99.9442 175.257 100.015 175.045L102.811 166.582C102.903 166.305 103.075 166.064 103.303 165.894C103.531 165.724 103.804 165.633 104.083 165.633H140.478Z" fill="#2F2E41"/>
<path d="M29.5527 132.318V133.93H214.926L214.786 133.729V132.318H29.5527Z" fill="#2F2E41"/>
<path d="M186.726 95.7796H56.6769C56.0384 95.7788 55.4262 95.5249 54.9748 95.0734C54.5233 94.6219 54.2693 94.0098 54.2686 93.3713V61.112C54.2693 60.4735 54.5233 59.8614 54.9748 59.4099C55.4262 58.9585 56.0384 58.7045 56.6769 58.7037H186.726C187.364 58.7045 187.977 58.9585 188.428 59.4099C188.88 59.8614 189.133 60.4735 189.134 61.112V93.3713C189.133 94.0098 188.88 94.6219 188.428 95.0734C187.977 95.5249 187.364 95.7788 186.726 95.7796ZM56.6769 59.6671C56.2937 59.6675 55.9265 59.8199 55.6556 60.0908C55.3847 60.3616 55.2323 60.7289 55.2319 61.112V93.3713C55.2323 93.7544 55.3847 94.1217 55.6556 94.3926C55.9265 94.6635 56.2937 94.8159 56.6769 94.8163H186.726C187.109 94.8159 187.476 94.6635 187.747 94.3926C188.018 94.1217 188.17 93.7544 188.171 93.3713V61.112C188.17 60.7289 188.018 60.3616 187.747 60.0907C187.476 59.8198 187.109 59.6675 186.726 59.667L56.6769 59.6671Z" fill="#0099FF"/>
<path d="M77.1044 85.5703C82.5942 85.5703 87.0447 81.24 87.0447 75.8983C87.0447 70.5567 82.5942 66.2264 77.1044 66.2264C71.6145 66.2264 67.1641 70.5567 67.1641 75.8983C67.1641 81.24 71.6145 85.5703 77.1044 85.5703Z" fill="#FF3399"/>
<path d="M99.4227 66C99.2085 65.9997 98.9964 66.0411 98.7984 66.122C98.6005 66.2028 98.4206 66.3215 98.2691 66.4712C98.1175 66.621 97.9973 66.7988 97.9153 66.9945C97.8332 67.1903 97.791 67.4001 97.791 67.612C97.791 67.8239 97.8332 68.0337 97.9153 68.2295C97.9973 68.4252 98.1175 68.603 98.2691 68.7527C98.4206 68.9025 98.6005 69.0211 98.7984 69.102C98.9964 69.1829 99.2085 69.2243 99.4227 69.224H176.222C176.654 69.224 177.068 69.0541 177.374 68.7518C177.679 68.4495 177.851 68.0395 177.851 67.612C177.851 67.1845 177.679 66.7744 177.374 66.4721C177.068 66.1698 176.654 66 176.222 66H99.4227Z" fill="#0099FF"/>
<path d="M99.4305 75.5496C98.9957 75.5496 98.5787 75.7195 98.2712 76.0218C97.9637 76.3241 97.791 76.7341 97.791 77.1616C97.791 77.5891 97.9637 77.9992 98.2712 78.3015C98.5787 78.6038 98.9957 78.7736 99.4305 78.7736H132.689C133.124 78.7736 133.541 78.6038 133.848 78.3015C134.156 77.9992 134.328 77.5891 134.328 77.1616C134.328 76.7341 134.156 76.3241 133.848 76.0218C133.541 75.7195 133.124 75.5496 132.689 75.5496H99.4305Z" fill="#29CC6A"/>
<path d="M100.333 84.5496C99.7145 84.5496 99.121 84.7077 98.6834 84.989C98.2458 85.2703 98 85.6518 98 86.0496C98 86.4474 98.2458 86.829 98.6834 87.1103C99.121 87.3916 99.7145 87.5496 100.333 87.5496H147.667C148.285 87.5496 148.879 87.3916 149.317 87.1103C149.754 86.829 150 86.4474 150 86.0496C150 85.6518 149.754 85.2703 149.317 84.989C148.879 84.7077 148.285 84.5496 147.667 84.5496H100.333Z" fill="#0099FF"/>
<path d="M326.304 209.893L320.162 209.893L317.24 186.199L326.307 186.2L326.304 209.893Z" fill="#FFB8B8"/>
<path d="M315.774 208.138H327.621V215.597H308.315C308.315 214.617 308.508 213.647 308.883 212.742C309.258 211.837 309.807 211.015 310.5 210.322C311.193 209.63 312.015 209.08 312.92 208.705C313.825 208.331 314.795 208.138 315.774 208.138Z" fill="#2F2E41"/>
<path d="M263.55 209.893L257.407 209.893L254.485 186.199L263.552 186.2L263.55 209.893Z" fill="#FFB8B8"/>
<path d="M253.019 208.138H264.866V215.597H245.561C245.561 214.617 245.753 213.647 246.128 212.742C246.503 211.837 247.053 211.015 247.745 210.322C248.438 209.63 249.26 209.08 250.165 208.705C251.07 208.331 252.04 208.138 253.019 208.138Z" fill="#2F2E41"/>
<path d="M284.066 34.1383V31.4516C284.066 26.8557 285.892 22.448 289.142 19.1982C292.391 15.9484 296.799 14.1227 301.395 14.1227C305.991 14.1227 310.398 15.9484 313.648 19.1982C316.897 22.448 318.723 26.8557 318.723 31.4516V34.1383C318.723 37.4516 317.407 40.6293 315.064 42.9722C312.721 45.315 309.544 46.6313 306.231 46.6313H296.559C294.918 46.6313 293.294 46.3081 291.778 45.6803C290.263 45.0525 288.885 44.1322 287.725 42.9722C286.565 41.8121 285.645 40.4349 285.017 38.9192C284.39 37.4034 284.066 35.7789 284.066 34.1383Z" fill="#2F2E41"/>
<path d="M301.395 47.5557C308.684 47.5557 314.592 41.647 314.592 34.3583C314.592 27.0696 308.684 21.1609 301.395 21.1609C294.107 21.1609 288.198 27.0696 288.198 34.3583C288.198 41.647 294.107 47.5557 301.395 47.5557Z" fill="#FFB8B8"/>
<path d="M229.612 79.7161C230.147 79.2104 230.787 78.8282 231.486 78.5966C232.186 78.3649 232.927 78.2894 233.659 78.3753C234.39 78.4613 235.094 78.7066 235.72 79.0939C236.347 79.4813 236.881 80.0013 237.285 80.6174L248.598 78.4774L251.575 85.0353L235.556 87.833C234.476 88.4427 233.21 88.6352 231.998 88.3738C230.786 88.1125 229.712 87.4155 228.979 86.415C228.246 85.4145 227.906 84.1799 228.022 82.9453C228.139 81.7106 228.705 80.5617 229.612 79.7161Z" fill="#FFB8B8"/>
<path d="M291.254 56.0912L272.703 68.3125L241.4 78.3086C240.985 78.442 240.629 78.715 240.393 79.0812C240.157 79.4475 240.054 79.8843 240.104 80.3173L240.787 86.1993C240.817 86.4596 240.902 86.7107 241.035 86.9366C241.168 87.1624 241.346 87.3579 241.559 87.5106C241.772 87.6633 242.015 87.7698 242.271 87.8233C242.528 87.8768 242.793 87.8761 243.049 87.8212L272.51 81.5061C273.936 81.2022 275.284 80.6086 276.471 79.7622L297.312 64.9335C298.067 64.393 298.67 63.6662 299.062 62.8237C299.453 61.9812 299.62 61.0518 299.546 60.1257C299.47 59.1984 299.153 58.307 298.628 57.5391C298.102 56.7712 297.386 56.1533 296.549 55.7462C295.713 55.3392 294.785 55.1569 293.856 55.2174C292.928 55.2779 292.031 55.579 291.254 56.0912Z" fill="#DD408E"/>
<path d="M320.271 203.17C319.8 203.17 319.339 203.032 318.944 202.775C318.549 202.517 318.238 202.15 318.048 201.718L289.888 132.133C289.822 131.982 289.711 131.855 289.571 131.769C289.431 131.683 289.268 131.641 289.103 131.65C288.939 131.66 288.782 131.719 288.652 131.821C288.522 131.922 288.427 132.061 288.379 132.218L265.404 199.962C265.307 200.277 265.146 200.569 264.932 200.82C264.718 201.071 264.455 201.275 264.159 201.421C263.863 201.566 263.541 201.65 263.211 201.666C262.882 201.682 262.552 201.631 262.244 201.515L254.539 198.626C254.121 198.47 253.754 198.202 253.48 197.851C253.205 197.499 253.033 197.079 252.983 196.635C249.517 166.441 279.741 90.2277 280.047 89.4616L280.131 89.2493L307.683 95.3442L307.741 95.4066C318.733 107.399 327.768 183.036 329.468 198.076C329.531 198.62 329.408 199.168 329.117 199.632C328.827 200.096 328.388 200.447 327.871 200.627L321.071 203.032C320.814 203.123 320.544 203.17 320.271 203.17Z" fill="#2F2E41"/>
<path d="M296.533 97.7973C289.857 97.7973 282.415 96.4663 280.124 90.9728L280.071 90.8466L280.143 90.7296C281.951 87.7627 284.341 82.7016 283.056 81.7516C280.526 79.8806 279.298 76.8028 279.407 72.6033C279.644 63.4871 285.855 55.3932 294.863 52.4628C297.378 51.6581 299.937 50.9993 302.527 50.4896C304.416 50.1085 306.365 50.1504 308.235 50.6123C310.106 51.0742 311.851 51.9446 313.345 53.161C314.857 54.3854 316.08 55.9296 316.925 57.6828C317.77 59.436 318.217 61.3546 318.232 63.3008C318.326 73.043 316.827 86.612 309.145 95.9276C308.785 96.3599 308.284 96.6512 307.73 96.7504C304.034 97.4189 300.288 97.7692 296.533 97.7973Z" fill="#FF3399"/>
<path d="M294.05 97.4325C294.413 96.1293 295.276 95.0221 296.451 94.3516C297.626 93.6811 299.018 93.5014 300.325 93.8516C300.592 93.9262 300.852 94.0225 301.103 94.1397L309.693 86.3222L315.667 90.347L303.383 101.218C302.828 102.218 301.955 103.004 300.902 103.45C299.849 103.897 298.677 103.978 297.573 103.682C296.929 103.506 296.327 103.204 295.801 102.794C295.275 102.384 294.835 101.873 294.508 101.292C294.18 100.711 293.971 100.071 293.893 99.4081C293.814 98.7456 293.867 98.0741 294.05 97.4325Z" fill="#FFB8B8"/>
<path d="M316.469 90.5465C315.912 90.5468 315.372 91.9661 314.94 91.613L311.553 88.8447C311.271 88.614 311.044 88.3223 310.89 87.9916C310.737 87.6609 310.66 87.2997 310.665 86.9351C310.671 86.5704 310.759 86.2118 310.923 85.886C311.087 85.5602 311.322 85.2757 311.612 85.0538L315.073 79.5301C315.241 79.4003 315.352 79.2093 315.38 78.9986C315.409 78.7879 315.353 78.5745 315.225 78.4046L308.775 65.5544C307.756 64.2119 308.687 64.3462 308.775 62.6632C308.862 60.9801 309.542 59.3822 310.694 58.1523C311.908 56.8417 313.569 56.0352 315.35 55.8928C317.13 55.7504 318.074 57.0512 319.48 58.1523L325.757 70.0169C326.747 70.7933 327.544 71.7881 328.086 72.9236C328.628 74.0591 328.901 75.3045 328.882 76.5627C328.863 77.8209 328.554 79.0576 327.978 80.1765C327.402 81.2953 326.576 82.266 325.563 83.0125L317.909 90.0723C317.492 90.3803 316.988 90.5465 316.469 90.5465Z" fill="#DD408E"/>
<path d="M289.705 30.6457V24.0977L301.395 18.993L312.541 24.0977V30.6457C312.541 30.9307 312.428 31.204 312.226 31.4056C312.025 31.6071 311.751 31.7203 311.466 31.7203H290.78C290.495 31.7203 290.221 31.6071 290.02 31.4056C289.818 31.204 289.705 30.9307 289.705 30.6457Z" fill="#2F2E41"/>
<path d="M300.858 14.9913C299.139 9.48986 302.749 3.18491 308.085 1.00729C313.422 -1.17034 319.806 0.351888 324.309 3.94965C328.812 7.54742 331.605 12.9362 333.086 18.5066C334.566 24.077 334.847 29.8856 335.12 35.6428C341.677 36.8472 346.137 44.6239 343.865 50.8914C341.594 57.1588 333.188 60.2725 327.382 56.9967C321.576 53.7209 319.894 44.915 324.085 39.7303C326.067 37.277 327.175 34.2323 327.232 31.0784C327.289 27.9246 326.292 24.8419 324.399 22.3186C322.506 19.7953 319.826 17.9756 316.782 17.1477C313.739 16.3199 310.506 16.5312 307.596 17.7482C304.364 19.0995 300.31 15.5884 300.858 14.9913Z" fill="#2F2E41"/>
<path d="M308.333 97.5318C307.775 97.5321 307.235 97.3394 306.804 96.9863L303.416 94.2181C303.134 93.9873 302.907 93.6956 302.754 93.3649C302.6 93.0342 302.523 92.673 302.529 92.3084C302.534 91.9438 302.622 91.5851 302.786 91.2593C302.95 90.9335 303.185 90.649 303.475 90.4271L317.682 79.5301C317.851 79.4003 317.961 79.2094 317.99 78.9986C318.018 78.7879 317.962 78.5745 317.835 78.4046L309.065 66.811C308.047 65.4685 307.536 63.8089 307.623 62.1258C307.71 60.4428 308.39 58.8449 309.542 57.615C310.756 56.3044 312.418 55.4978 314.198 55.3554C315.978 55.213 317.747 55.7452 319.154 56.8462L319.209 56.9048L328.366 70.0169C329.356 70.7933 330.153 71.7881 330.696 72.9236C331.238 74.0591 331.51 75.3045 331.491 76.5627C331.473 77.8209 331.163 79.0577 330.588 80.1765C330.012 81.2954 329.185 82.266 328.172 83.0126L309.772 97.0577C309.355 97.3656 308.851 97.5318 308.333 97.5318Z" fill="#FF3399"/>
</g>
<defs>
<clipPath id="clip0_794_51421">
<rect width="345" height="216" fill="white" transform="matrix(-1 0 0 1 345 0)"/>
</clipPath>
</defs>
</svg>
