<svg width="658" height="600" viewBox="0 0 658 600" fill="none" xmlns="http://www.w3.org/2000/svg">
<g clip-path="url(#clip0_770_51020)">
<path d="M0.543945 597.221H172.292V591.951C172.292 587.375 170.474 582.986 167.238 579.751C164.002 576.515 159.614 574.697 155.038 574.697H17.7979C13.2219 574.697 8.83325 576.515 5.5975 579.751C2.36176 582.986 0.543945 587.375 0.543945 591.951L0.543945 597.221Z" fill="#E6E6E6"/>
<path d="M90.4373 575.749L85.2145 573.646C139.863 438.003 134.598 266.879 88.4025 120.085C82.915 103.077 82.5192 84.8356 87.2639 67.6055C92.0085 50.3753 101.687 34.9078 115.108 23.106C141.921 -0.821013 178.887 -6.64984 211.586 7.89265C243.863 22.2496 248.312 47.2572 248.312 72.1431H242.68C242.68 45.5786 237.003 25.3613 209.297 13.0376C178.651 -0.591433 143.997 4.87516 118.857 27.3079C106.251 38.3923 97.1611 52.9198 92.7045 69.1031C88.2479 85.2864 88.6196 102.419 93.7738 118.394C140.503 266.883 145.459 439.183 90.4373 575.749Z" fill="#E6E6E6"/>
<path d="M244.088 155.198C233.203 155.198 224.379 146.375 224.379 135.49C224.379 124.606 233.203 115.782 244.088 115.782C254.973 115.782 263.797 124.606 263.797 135.49C263.797 146.375 254.973 155.198 244.088 155.198Z" fill="#E6E6E6"/>
<path d="M274.442 169.847V132.505H268.635V169.847C266.97 170.521 265.59 171.753 264.734 173.332C263.877 174.911 263.596 176.739 263.939 178.503C264.282 180.266 265.228 181.856 266.615 182.998C268.001 184.141 269.742 184.766 271.538 184.766C273.335 184.766 275.076 184.141 276.462 182.998C277.849 181.856 278.795 180.266 279.138 178.503C279.481 176.739 279.2 174.911 278.343 173.332C277.486 171.753 276.107 170.521 274.442 169.847Z" fill="#E6E6E6"/>
<path d="M302.51 103.816C302.5 95.2324 299.086 87.0027 293.015 80.9329C286.945 74.863 278.715 71.4487 270.131 71.4389H216.636C208.049 71.4389 199.813 74.8501 193.741 80.9221C187.669 86.994 184.257 95.2294 184.257 103.816C184.257 112.403 187.669 120.639 193.741 126.711C199.813 132.783 208.049 136.194 216.636 136.194H270.131C278.715 136.184 286.945 132.77 293.015 126.7C299.086 120.63 302.5 112.4 302.51 103.816Z" fill="#E7D431"/>
<path d="M377.883 304.318C372.512 235.604 345.05 202.865 362.634 182.334C379.478 162.668 426.923 166.73 457.393 185.601C539.579 236.501 569.688 439.368 463.929 538.484C363.43 632.67 172.965 602.504 130.638 525.415C120.761 507.427 112.916 475.895 127.37 456.798C163.257 409.387 293.732 495.262 351.742 441.55C386.122 409.719 380.83 342.028 377.883 304.318Z" fill="#3F3D56"/>
<path d="M315.06 270.181C317.056 271.099 318.615 272.76 319.405 274.81C320.195 276.86 320.154 279.137 319.291 281.158C319.109 281.566 318.894 281.958 318.647 282.33L336.287 305.883L327.485 319.038L306.809 284.162C305.344 283.019 304.298 281.424 303.835 279.625C303.372 277.826 303.518 275.924 304.249 274.217C304.675 273.249 305.287 272.375 306.05 271.644C306.814 270.913 307.714 270.339 308.699 269.956C309.684 269.572 310.735 269.387 311.792 269.41C312.849 269.432 313.891 269.663 314.859 270.089C314.926 270.118 314.993 270.149 315.06 270.181Z" fill="#FFB6B6"/>
<path d="M315.073 310.789C313.919 311.813 317.121 313.076 320.508 311.083C321.478 310.506 321.892 310.266 322.001 310.419C322.273 310.8 320.683 313.61 321.107 319.851C321.369 323.575 327.555 330.579 334.581 337.408C344.078 346.644 355.123 355.553 355.123 355.553L359 352.449L399.66 319.851L406.521 310.353C405.893 306.603 404.949 302.912 403.7 299.32C401.98 294.348 399.935 289.495 397.579 284.791C396.316 282.232 395.02 279.792 393.778 277.548L371.994 301.553L353.739 321.659C353.739 321.659 348.424 313.098 344.307 310.767C343.782 310.432 343.185 310.227 342.564 310.168C338.404 309.972 338.153 307.707 342.978 302.773C347.803 297.839 341.715 302.446 337.424 301.117C333.132 299.789 337.423 301.117 336.519 297.795C335.615 294.474 323.58 287.808 323.58 287.808L323.079 288.255L313.984 296.282L311.381 298.58C311.381 298.58 314.224 306.378 315.008 308.023C315.792 309.667 316.217 309.754 315.073 310.789Z" fill="#FF3399"/>
<path d="M75.3251 462.088L74.8819 450.074L121.01 442.648L121.665 460.378L75.3251 462.088Z" fill="#FFB6B6"/>
<path d="M83.6993 465.705L84.1367 446.47L75.9133 446.773L62.6374 428.991C61.9818 428.113 61.0625 427.467 60.0139 427.148C58.9653 426.829 57.8422 426.853 56.8085 427.218C55.7749 427.583 54.8848 428.268 54.2683 429.174C53.6517 430.08 53.341 431.16 53.3815 432.255L54.2246 455.105L62.5041 458.743L54.4267 460.581L54.7446 469.197L83.6993 465.705Z" fill="#2F2E41"/>
<path d="M334.943 466.765L188.837 470.47C188.837 470.47 125.743 474.114 110.939 464.484L95.3289 462.513L94.4828 439.584C94.4828 439.584 104.029 439.654 109.517 437.097C115.005 434.54 111.191 431.411 116.424 434.488C121.656 437.565 121.104 437.935 125.149 436.521C129.195 435.107 314.722 406.829 314.722 406.829L334.943 466.765Z" fill="#2F2E41"/>
<path d="M142.413 456.815L133.917 448.31L162.682 411.493L175.222 424.047L142.413 456.815Z" fill="#FFB6B6"/>
<path d="M151.012 449.416L138.25 435.017L132.427 440.832L110.6 436.825C109.522 436.627 108.409 436.779 107.424 437.258C106.438 437.737 105.631 438.519 105.121 439.49C104.612 440.46 104.425 441.568 104.59 442.651C104.754 443.735 105.26 444.738 106.035 445.513L122.194 461.691L130.739 458.727L126.067 465.568L132.16 471.668L151.012 449.416Z" fill="#2F2E41"/>
<path d="M392.586 386.751L391.133 420.514C389.423 460.261 345.65 484.317 311.707 463.564C311.081 463.182 310.453 462.785 309.823 462.376C309.823 462.376 296.956 458.92 297.346 453.448C297.737 447.975 294.593 445.312 291.811 446.804C289.029 448.296 252.605 396.605 252.605 396.605C252.605 396.605 176.926 434.353 160.231 443.24C160.231 443.24 144.534 418.698 145.672 418.955C146.811 419.212 239.296 354.483 239.296 354.483C239.296 354.483 254.363 339.235 273.053 349.303C273.442 350.782 273.109 350.833 273.109 350.833L334.849 401.139L343.573 384.573L392.586 386.751Z" fill="#2F2E41"/>
<path d="M334.374 344.542C334.492 346.101 334.714 347.651 335.039 349.181C335.483 351.396 336.2 353.547 337.174 355.586C337.174 355.586 337.174 357.862 341.53 365.486C345.887 373.11 340.441 369.842 337.174 375.506C333.906 381.159 337.174 378.556 340.801 382.193C341.845 383.252 342.586 384.571 342.948 386.013C343.31 387.455 343.28 388.968 342.859 390.395C342.859 390.395 389.651 390.427 398.364 387.16C407.078 383.892 409.06 365.486 401.25 363.667C393.452 361.848 403.614 360.04 408.199 355.847C412.785 351.654 403.614 344.792 403.614 344.792C403.614 344.792 407.393 338.268 407.078 316.365C407.033 314.351 406.847 312.342 406.522 310.353C405.894 306.603 404.95 302.912 403.701 299.32C401.981 294.349 399.936 289.495 397.58 284.791C396.317 282.232 395.02 279.792 393.779 277.548C393.583 277.2 393.397 276.862 393.201 276.524C390.838 272.342 388.681 268.922 387.254 266.733C386.154 265.034 385.49 264.076 385.49 264.076L377.561 250.287L351.093 262.692L352.597 282.983L348.033 298.286L345.931 305.332L344.308 310.767L341.803 319.186C341.803 319.186 342.489 319.219 341.672 320.341C337.91 325.342 335.471 331.213 334.581 337.408C334.268 339.772 334.198 342.163 334.374 344.542Z" fill="#FF3399"/>
<path d="M257.94 346.728L258.437 346.568L321.785 326.169L298.442 249.59C297.977 248.065 297.172 246.665 296.088 245.496C295.003 244.328 293.668 243.421 292.182 242.843C290.696 242.266 289.098 242.033 287.509 242.163C285.92 242.292 284.381 242.781 283.008 243.592L242.526 267.509C239.322 269.4 236.884 272.357 235.638 275.863C234.393 279.369 234.419 283.201 235.712 286.69L257.94 346.728Z" fill="#2F2E41"/>
<path d="M257.682 351.597L321.54 331.034L298.197 254.454C297.732 252.929 296.927 251.53 295.842 250.361C294.758 249.192 293.422 248.285 291.936 247.708C290.45 247.13 288.853 246.898 287.264 247.027C285.675 247.157 284.136 247.646 282.763 248.457L240.348 269.632C233.976 273.396 234.125 283.137 237.084 291.13L257.682 351.597Z" fill="#E0E0E0"/>
<path d="M264.075 357.139C265.546 357.969 267.173 358.484 268.853 358.651C270.533 358.818 272.23 358.634 273.835 358.11L314.651 344.966C317.783 343.943 320.39 341.736 321.916 338.817C323.443 335.897 323.767 332.497 322.82 329.341L302.356 262.21C301.947 260.869 301.275 259.623 300.378 258.545C299.481 257.467 298.378 256.579 297.134 255.933C295.889 255.287 294.528 254.896 293.13 254.783C291.733 254.67 290.327 254.837 288.995 255.275L246.696 269.163C244.681 269.824 242.818 270.883 241.219 272.276C239.62 273.67 238.316 275.37 237.385 277.275C236.453 279.181 235.913 281.254 235.796 283.372C235.68 285.49 235.989 287.61 236.705 289.606L258.584 350.603C259.567 353.372 261.517 355.693 264.075 357.139Z" fill="#3F3D56"/>
<path d="M352.59 250.522C336.444 250.522 323.355 237.434 323.355 221.289C323.355 205.144 336.444 192.055 352.59 192.055C368.735 192.055 381.824 205.144 381.824 221.289C381.824 237.434 368.735 250.522 352.59 250.522Z" fill="#FFB6B6"/>
<path d="M451.448 250.963C448.765 256.163 444.366 260.275 438.997 262.602C436.855 263.578 434.602 264.291 432.288 264.725C431.634 262.131 430.586 259.653 429.183 257.375C429.65 259.942 429.65 262.572 429.183 265.139C425.657 265.427 422.11 264.987 418.762 263.845C415.474 262.727 412.492 260.858 410.052 258.387C407.613 255.915 405.783 252.909 404.707 249.607C402.378 241.858 404.887 233.581 405.084 225.493C405.288 217.404 401.447 207.729 393.416 206.728C387.3 205.965 388.057 206.557 383.662 210.878C389.809 217.706 374.824 247.948 366.783 246.611C362.236 245.856 358.891 242.247 357.992 242.372C353.388 253.647 367.238 269.638 356.253 274.888L357.068 273.809C362.818 264.311 345.804 248.268 351.554 238.77C353.157 236.113 354.824 232.997 353.832 230.058C352.891 227.263 348.124 226.379 347.118 228.922C348.753 223.092 344.189 216.249 338.127 215.654C332.741 215.123 333.052 216.658 327.918 218.059C327.261 215.847 326.316 213.731 325.106 211.767C325.515 214.008 325.566 216.3 325.255 218.557C323.403 218.777 321.53 218.381 319.926 217.429C315.185 214.586 315.044 207.249 318.301 202.783C321.564 198.317 327.03 196.112 332.304 194.443C332.352 183.291 362.36 177.953 367.879 188.321C368.446 179.926 378.07 174.271 386.36 175.697C394.65 177.123 401.19 183.77 405.177 191.179C409.163 198.582 411.143 206.871 414.061 214.757C416.98 222.642 421.151 230.505 428.14 235.183C435.127 239.856 445.512 240.28 451.346 234.224C452.677 236.81 453.379 239.673 453.397 242.581C453.415 245.489 452.747 248.361 451.448 250.963Z" fill="#2F2E41"/>
<path d="M421.451 384.646C420.846 384.163 420.19 383.747 419.494 383.407C408.304 377.838 373.506 363.383 346.297 363.976C293.944 365.117 227.318 422.893 242.824 461.691C254.623 491.213 313.281 508.01 356.099 494.576C416.085 475.756 439.762 399.246 421.451 384.646Z" fill="#3F3D56"/>
<path d="M638.788 597.332C655.895 594.105 671.038 517.039 637.381 479.084C625.849 466.08 611.465 460.42 592.332 455.153C482.207 424.836 398.213 453.729 386.925 460.784C375.663 467.822 355.919 573.874 381.167 588.886C395.372 597.332 423.527 601.555 437.477 591.701C458.004 577.202 423.55 539.592 438.885 514.277C456.287 485.549 547.925 475.873 593.867 504.423C642.883 534.883 541.78 615.632 638.788 597.332Z" fill="#F2F2F2"/>
<path d="M524.415 466.303H589.769C605.902 450.842 617.437 435.942 608.202 423.574C608.202 420.018 606.789 416.608 604.275 414.094C601.761 411.58 598.351 410.168 594.796 410.168H519.387C515.832 410.168 512.422 411.58 509.908 414.094C507.394 416.608 505.981 420.018 505.981 423.574C502.465 437.667 508.747 451.912 524.415 466.303Z" fill="#0099FF"/>
<path d="M536.152 393.292C536.772 393.32 537.386 393.158 537.911 392.826C538.435 392.494 538.845 392.008 539.084 391.436C539.324 390.863 539.382 390.231 539.25 389.624C539.118 389.017 538.802 388.466 538.346 388.045L538.139 387.22C538.166 387.154 538.194 387.088 538.221 387.022C538.846 385.547 539.893 384.289 541.23 383.406C542.568 382.524 544.136 382.056 545.738 382.062C547.341 382.068 548.905 382.547 550.236 383.44C551.567 384.332 552.604 385.598 553.218 387.078C555.671 392.985 558.794 398.902 559.563 405.148C559.901 407.909 559.758 410.708 559.14 413.42C564.901 400.854 567.893 387.196 567.912 373.372C567.913 369.903 567.72 366.437 567.335 362.989C567.016 360.163 566.573 357.357 566.008 354.571C562.92 339.455 556.29 325.287 546.664 313.231C542.004 310.689 538.236 306.78 535.867 302.03C535.009 300.323 534.402 298.5 534.066 296.619C534.592 296.688 536.048 288.683 535.652 288.192C536.384 287.081 537.695 286.528 538.495 285.444C542.474 280.05 547.955 280.992 550.817 288.322C556.93 291.407 556.989 296.523 553.238 301.444C550.852 304.575 550.524 308.811 548.43 312.162C548.645 312.438 548.87 312.705 549.085 312.981C553.023 318.044 556.455 323.481 559.332 329.214C558.632 322.792 559.467 316.295 561.768 310.258C564.101 304.632 568.472 299.894 572.321 295.031C576.945 289.189 586.427 291.738 587.241 299.144C587.249 299.216 587.257 299.287 587.265 299.359C586.693 299.681 586.133 300.024 585.585 300.386C584.897 300.846 584.364 301.502 584.056 302.27C583.748 303.038 583.678 303.881 583.857 304.689C584.036 305.496 584.455 306.231 585.059 306.797C585.663 307.363 586.423 307.733 587.241 307.859L587.325 307.872C587.121 309.932 586.761 311.975 586.248 313.981C591.186 333.078 580.525 340.034 565.301 340.346C564.965 340.518 564.638 340.691 564.302 340.854C567.192 349.046 569.005 357.579 569.695 366.238C570.086 371.346 570.063 376.478 569.627 381.583L569.652 381.402C570.755 375.726 573.784 370.604 578.226 366.901C584.824 361.481 594.145 359.486 601.263 355.129C602.019 354.644 602.899 354.385 603.798 354.382C604.697 354.38 605.577 354.635 606.336 355.117C607.095 355.599 607.7 356.288 608.08 357.103C608.46 357.917 608.6 358.823 608.482 359.715C608.472 359.778 608.462 359.841 608.453 359.905C607.391 360.337 606.358 360.835 605.359 361.395C604.787 361.718 604.228 362.06 603.68 362.422C602.992 362.882 602.459 363.539 602.151 364.307C601.842 365.074 601.773 365.917 601.952 366.725C602.131 367.533 602.55 368.268 603.154 368.833C603.757 369.399 604.518 369.769 605.336 369.895L605.42 369.908C605.48 369.917 605.532 369.925 605.592 369.934C603.779 374.263 601.234 378.247 598.07 381.712C594.982 398.383 581.719 399.965 567.533 395.11H567.524C565.968 401.874 563.712 408.458 560.795 414.755H536.755C536.668 414.488 536.591 414.212 536.513 413.945C538.739 414.085 540.973 413.952 543.165 413.549C541.382 411.36 539.598 409.155 537.814 406.966C537.775 406.925 537.737 406.882 537.702 406.837C536.798 405.717 535.884 404.605 534.98 403.485L534.979 403.484C534.931 400.051 535.326 396.625 536.152 393.292Z" fill="#29CC6A"/>
<path d="M454.157 462.802C453.758 463.963 453.001 464.967 451.996 465.672C450.991 466.376 449.788 466.743 448.561 466.721L424.586 466.104C423.349 466.08 422.154 465.657 421.178 464.897C420.203 464.137 419.499 463.082 419.173 461.89L415.78 425.612C414.576 426.157 413.266 426.427 411.945 426.4C409.626 426.342 407.426 425.365 405.828 423.685C404.23 422.005 403.365 419.758 403.423 417.44C403.482 415.122 404.458 412.922 406.139 411.324C407.819 409.726 410.065 408.861 412.384 408.919C412.912 408.917 413.438 408.972 413.955 409.083C414.516 408.475 415.199 407.992 415.959 407.664C416.718 407.336 417.538 407.171 418.366 407.179L455.245 408.132C455.551 408.143 455.856 408.181 456.155 408.245C456.964 408.395 457.731 408.718 458.405 409.19C459.078 409.662 459.643 410.273 460.061 410.981C460.479 411.69 460.74 412.48 460.827 413.298C460.914 414.116 460.825 414.943 460.565 415.724L454.157 462.802ZM415.084 423.149L412.67 414.504C412.395 413.505 412.389 412.452 412.652 411.45C412.535 411.45 412.431 411.394 412.314 411.394C410.659 411.36 409.058 411.984 407.862 413.128C406.666 414.273 405.973 415.845 405.934 417.5C405.895 419.155 406.514 420.758 407.655 421.957C408.796 423.156 410.366 423.854 412.021 423.898C413.091 423.931 414.15 423.672 415.084 423.149Z" fill="#E7D431"/>
<path d="M456.154 408.245C455.369 412.737 446.535 415.895 435.913 415.346C426.146 414.896 418.159 411.467 416.696 407.402C417.237 407.242 417.801 407.167 418.365 407.179L455.245 408.132C455.551 408.143 455.855 408.181 456.154 408.245Z" fill="white"/>
<path d="M279.852 312.084C282.048 312.164 284.126 313.098 285.644 314.687C287.161 316.275 288 318.393 287.979 320.59C287.968 321.037 287.92 321.482 287.836 321.92L313.176 336.88L310.109 352.409L277.611 328.163C275.82 327.671 274.241 326.601 273.122 325.118C272.003 323.635 271.406 321.824 271.425 319.966C271.446 318.909 271.674 317.867 272.098 316.899C272.522 315.93 273.132 315.055 273.894 314.322C274.656 313.589 275.555 313.014 276.539 312.629C277.524 312.243 278.574 312.056 279.631 312.077C279.705 312.078 279.779 312.08 279.852 312.084Z" fill="#FFB6B6"/>
<path d="M300.611 347.748C301.289 346.84 301.58 346.459 301.735 346.564C302.131 346.803 301.75 350.011 304.54 355.603C308.469 363.459 349.664 375.49 349.664 375.49L354.736 366.205L377.045 325.401L384.734 292.696C385.003 291.555 385.134 290.387 385.123 289.215C378.267 284.391 370.987 280.2 363.371 276.695C360.328 278.421 358.008 281.185 356.836 284.481L341.479 327.538L335.351 344.729C335.351 344.729 324.541 336.999 320.62 338.418C316.705 339.846 315.593 337.844 318.152 331.436C320.711 325.028 316.87 331.624 312.4 332.043C307.922 332.469 312.4 332.043 310.285 329.324C308.169 326.605 294.492 325.075 294.492 325.075L294.202 325.682L288.901 336.584L287.384 339.716C287.384 339.716 293.003 345.813 294.359 347.028C295.721 348.252 296.142 348.167 295.475 349.561C294.817 350.949 298.257 350.886 300.611 347.748Z" fill="#FF3399"/>
</g>
<defs>
<clipPath id="clip0_770_51020">
<rect width="658" height="600" fill="white" transform="matrix(-1 0 0 1 658 -3.05176e-05)"/>
</clipPath>
</defs>
</svg>
