<svg width="1199" height="211" viewBox="0 0 1199 211" fill="none" xmlns="http://www.w3.org/2000/svg">
<g clip-path="url(#clip0_787_51148)">
<path d="M0.00012207 129.5L0 211H1194C1194 211 1256 -202.5 0.00012207 129.5Z" fill="#000C55"/>
<path d="M0 132V211H1194C1194 211 1194 -175.5 0 132Z" fill="#13217A"/>
<path d="M0 136.5V211H1194C1194 211 1163 -162 0 136.5Z" fill="#000C55"/>
<path d="M0 140.5V211H1194C1194 211 1137.5 -149.5 0 140.5Z" fill="#13217A"/>
<path d="M0 144V211H1194C1194 211 1104 -132.5 0 144Z" fill="#000C55"/>
<path d="M0 146.5V211H1194C1194 211 1088 -111.5 0 146.5Z" fill="#13217A"/>
<path d="M0 149.5V211H1194C1194 211 1060.5 -88.9997 0 149.5Z" fill="#000C55"/>
<path d="M11 158.5V194H1161C1161 194 1000.5 -52.5 11 158.5Z" fill="#13217A"/>
</g>
<defs>
<clipPath id="clip0_787_51148">
<rect width="1199" height="211" fill="white"/>
</clipPath>
</defs>
</svg>
