<svg width="1294" height="211" viewBox="0 0 1294 211" fill="none" xmlns="http://www.w3.org/2000/svg">
<g clip-path="url(#clip0_786_51130)">
<path d="M1293.5 134.5V211L0.5 211C0.5 211 93 -204.5 1293.5 134.5Z" fill="#FF3399"/>
<path d="M1294 129.5L1294 211H100C100 211 38 -202.5 1294 129.5Z" fill="#000C55"/>
<path d="M1294 132V211H100C100 211 100 -175.5 1294 132Z" fill="#13217A"/>
<path d="M1294 136.5V211H100C100 211 131 -162 1294 136.5Z" fill="#000C55"/>
<path d="M1294 140.5V211H100C100 211 156.5 -149.5 1294 140.5Z" fill="#13217A"/>
<path d="M1294 144V211H100C100 211 190 -132.5 1294 144Z" fill="#000C55"/>
<path d="M1294 146.5V211H100C100 211 206 -111.5 1294 146.5Z" fill="#13217A"/>
<path d="M1294 149.5V211H100C100 211 233.5 -88.9997 1294 149.5Z" fill="#000C55"/>
<path d="M1281 158.5V194H131C131 194 291.5 -52.5 1281 158.5Z" fill="#13217A"/>
</g>
<defs>
<clipPath id="clip0_786_51130">
<rect width="1294" height="211" fill="white" transform="matrix(-1 0 0 1 1294 0)"/>
</clipPath>
</defs>
</svg>
