<svg width="120" height="120" viewBox="0 0 120 120" fill="none" xmlns="http://www.w3.org/2000/svg">
<g clip-path="url(#clip0_803_51147)">
<path d="M60 120C93.1371 120 120 93.1371 120 60C120 26.8629 93.1371 0 60 0C26.8629 0 0 26.8629 0 60C0 93.1371 26.8629 120 60 120Z" fill="white"/>
<path d="M96.7612 51.5049H90.5092L78.9117 43.2668L82.3329 39.9042C82.884 39.3626 83.3211 38.7195 83.6194 38.0117C83.9177 37.3039 84.0712 36.5452 84.0712 35.7791C84.0712 35.0129 83.9177 34.2542 83.6194 33.5464C83.3211 32.8386 82.884 32.1955 82.3329 31.6539C80.0927 29.4487 76.1863 29.4487 73.944 31.6539L69.1642 36.3486L67.1965 34.9496C65.739 34.1862 64.1066 33.8039 62.4557 33.8395C60.8049 33.875 59.191 34.3272 57.769 35.1526L37.7619 46.3371C37.5448 46.4581 37.3699 46.6407 37.2601 46.861L28.8526 63.8245C28.6396 64.3422 28.5354 64.897 28.5464 65.4554C28.5574 66.0138 28.6834 66.5643 28.9166 67.0735C29.1432 67.5703 29.4713 68.0159 29.8805 68.3827C30.2897 68.7495 30.7712 69.0296 31.2952 69.2056C32.5249 69.6271 33.8188 69.8386 35.1211 69.831L29.9965 74.873C29.9018 74.9643 29.8237 75.0707 29.7652 75.1877L23.1209 88.2566C23.0105 88.4839 22.9745 88.7393 23.0178 88.9877C23.0612 89.236 23.1817 89.465 23.3628 89.6431C23.544 89.8213 23.7768 89.9398 24.0293 89.9824C24.2818 90.0251 24.5416 89.9896 24.7727 89.881L38.0654 83.3588C38.1844 83.3013 38.2926 83.2244 38.3854 83.1314L43.6546 77.9493C43.5284 78.5669 43.5317 79.2033 43.6642 79.8195C43.7967 80.4358 44.0556 81.0191 44.4251 81.5336C44.7947 82.0481 45.267 82.483 45.8133 82.8119C46.3596 83.1407 46.9683 83.3565 47.6023 83.4461C47.6611 83.4543 47.7205 83.4583 47.7799 83.4583H47.9017L69.5812 81.3241L90.6826 76.9624H95.3468C95.6754 76.9624 95.9905 76.8341 96.2228 76.6056C96.4552 76.3771 96.5857 76.0672 96.5857 75.7441C96.5857 75.421 96.4552 75.1111 96.2228 74.8826C95.9905 74.6541 95.6754 74.5257 95.3468 74.5257H90.5505C90.4644 74.5254 90.3786 74.5342 90.2945 74.5521L69.1993 78.9098L47.8232 81.0074C47.4515 80.9317 47.1054 80.7645 46.8174 80.5214C46.5293 80.2783 46.3087 79.9673 46.1762 79.6175C46.0438 79.2676 46.0038 78.8904 46.06 78.5213C46.1162 78.1521 46.2668 77.803 46.4977 77.5066C48.6656 74.7247 52.0187 72.7794 56.5074 71.7134C57.9176 71.3235 70.3204 67.7294 71.5468 61.5889C72.0238 59.1948 70.8159 56.8738 67.9253 54.6605L67.5846 54.4107L77.1484 45.005L89.3839 53.7122C89.5955 53.8607 89.8487 53.9409 90.1086 53.9417H96.7612C97.0897 53.9417 97.4048 53.8133 97.6372 53.5848C97.8695 53.3563 98 53.0464 98 52.7233C98 52.4002 97.8695 52.0903 97.6372 51.8618C97.4048 51.6333 97.0897 51.5049 96.7612 51.5049ZM32.1025 66.911C31.8976 66.8411 31.7094 66.7306 31.5496 66.5863C31.3898 66.4421 31.2618 66.2672 31.1733 66.0724C30.9874 65.6771 30.9659 65.2261 31.1135 64.8155L39.3207 48.2641L59.0181 37.2522C61.1489 36.0034 63.8351 35.9425 65.8916 37.0147L67.405 38.0909L51.5067 53.7264L48.6512 53.8462C48.4161 53.8561 48.1887 53.9316 47.9956 54.0639C47.8025 54.1963 47.6518 54.3799 47.561 54.5935C46.4032 57.1565 44.9593 59.5851 43.2561 61.8346L38.6394 66.3749C36.7254 67.5425 34.5326 67.7233 32.1025 66.911ZM36.7791 81.2713L26.9923 86.0859L31.8877 76.4548L75.6928 33.3718C76.3513 32.7526 77.2273 32.407 78.1384 32.407C79.0496 32.407 79.9256 32.7526 80.5841 33.3718C80.9056 33.6875 81.1606 34.0624 81.3346 34.4751C81.5085 34.8878 81.5981 35.3302 81.5981 35.777C81.5981 36.2238 81.5085 36.6662 81.3346 37.0789C81.1606 37.4916 80.9056 37.8666 80.5841 38.1823L36.7791 81.2713ZM66.4222 56.5956C68.4869 58.1815 69.4016 59.7045 69.1208 61.1198C68.3279 65.0916 59.2638 68.4299 55.8839 69.3599C53.9753 69.7991 52.1268 70.4603 50.3773 71.3296L65.8131 56.1489L66.4222 56.5956Z" fill="#FF3399"/>
</g>
<defs>
<clipPath id="clip0_803_51147">
<rect width="120" height="120" fill="white"/>
</clipPath>
</defs>
</svg>
