<svg width="120" height="120" viewBox="0 0 120 120" fill="none" xmlns="http://www.w3.org/2000/svg">
<g clip-path="url(#clip0_803_51167)">
<path d="M60 120C93.1371 120 120 93.1371 120 60C120 26.8629 93.1371 0 60 0C26.8629 0 0 26.8629 0 60C0 93.1371 26.8629 120 60 120Z" fill="white"/>
<path d="M98.7038 39.7975H94.9415V36.0539C94.9415 35.7117 94.8049 35.3834 94.5619 35.1414C94.3188 34.8994 93.9891 34.7634 93.6453 34.7634H89.0051V31.3785C89.0047 31.0506 88.8792 30.7351 88.6539 30.4958C88.4286 30.2566 88.1204 30.1116 87.7917 30.0901C71.0053 29.0326 62.7995 37.6536 60 41.4879C57.2088 37.6515 49.0258 29.0264 32.2062 30.0901C31.8775 30.1116 31.5693 30.2566 31.344 30.4958C31.1187 30.7351 30.9932 31.0506 30.9929 31.3785V34.7634H26.3547C26.0109 34.7634 25.6812 34.8994 25.4381 35.1414C25.1951 35.3834 25.0585 35.7117 25.0585 36.0539V39.7975H21.2962C20.9524 39.7975 20.6227 39.9335 20.3796 40.1755C20.1366 40.4175 20 40.7457 20 41.088V88.7075C20.0005 89.0497 20.1372 89.3779 20.3801 89.6201C20.623 89.8623 20.9524 89.9989 21.2962 90C21.3894 89.9997 21.4824 89.99 21.5737 89.9711C21.8408 89.9093 48.5495 84.1991 59.4761 89.0126H59.5051C59.5383 89.0249 59.5735 89.0311 59.6066 89.0414C59.6327 89.0548 59.6597 89.0665 59.6873 89.0765C59.7638 89.092 59.8413 89.1017 59.9193 89.1053C59.9462 89.1053 59.971 89.1053 59.9959 89.1053H60.0104H60.0601C60.1451 89.1032 60.2297 89.0928 60.3127 89.0744C60.3375 89.0744 60.3582 89.0517 60.381 89.0455C60.4224 89.0354 60.4631 89.023 60.5032 89.0084C60.5032 89.0084 60.5177 89.0084 60.5239 89.0084C71.4401 84.2053 98.1592 89.9072 98.4263 89.967C98.5176 89.9859 98.6106 89.9956 98.7038 89.9959C99.0476 89.9948 99.377 89.8582 99.6199 89.616C99.8628 89.3738 99.9995 89.0456 100 88.7033V41.0839C99.9989 40.7423 99.8619 40.4151 99.6189 40.174C99.3759 39.9329 99.0469 39.7975 98.7038 39.7975ZM92.3491 37.3444V80.6658C88.3798 79.7525 77.977 78.3982 64.4601 84.2403C68.2141 80.5297 75.4343 75.8461 87.624 76.6418C87.8011 76.6539 87.9788 76.6294 88.1459 76.5698C88.3131 76.5102 88.466 76.4168 88.5951 76.2955C88.7252 76.175 88.8291 76.0293 88.9003 75.8672C88.9715 75.7052 89.0086 75.5303 89.0092 75.3534V37.3464L92.3491 37.3444ZM86.4106 32.603V73.997C72.6224 73.5269 64.8576 79.7505 61.2962 83.8342V44.1946C62.3916 42.3434 69.2432 32.0114 86.4106 32.6072V32.603ZM33.5894 32.603C50.7485 31.9743 57.6085 42.3393 58.7038 44.1905V83.8321C55.2687 79.8968 47.9553 73.9743 35.043 73.9743C34.5667 73.9743 34.0801 73.9743 33.5935 73.997L33.5894 32.603ZM27.6509 37.3444H30.9949V75.3534C30.9955 75.5303 31.0326 75.7052 31.1038 75.8672C31.1751 76.0293 31.2789 76.175 31.409 76.2955C31.5378 76.4172 31.6907 76.5109 31.8579 76.5706C32.0251 76.6302 32.203 76.6545 32.3802 76.6418C44.5346 75.8502 51.7673 80.5297 55.5296 84.2321C42.0188 78.392 31.6182 79.7546 27.655 80.6658L27.6509 37.3444ZM22.5945 87.1243V42.3908H25.0585V82.3603C25.0585 82.5668 25.1083 82.7702 25.2037 82.9536C25.2991 83.137 25.4373 83.2949 25.6067 83.414C25.7761 83.5332 25.9717 83.6101 26.1772 83.6384C26.3827 83.6667 26.5919 83.6455 26.7875 83.5765C26.8972 83.5374 35.8132 80.5441 48.943 84.5557C38.6914 84.2053 26.8351 86.2935 22.5945 87.1243ZM97.4055 87.1243C93.1711 86.2997 81.3438 84.2114 71.1088 84.5536C84.1743 80.5854 93.1049 83.5394 93.2125 83.5765C93.4079 83.6451 93.617 83.666 93.8222 83.6375C94.0274 83.609 94.2227 83.532 94.3918 83.4129C94.561 83.2938 94.6989 83.136 94.7942 82.9529C94.8895 82.7697 94.9393 82.5665 94.9394 82.3603V42.3805H97.4035L97.4055 87.1243Z" fill="#FF3399"/>
</g>
<defs>
<clipPath id="clip0_803_51167">
<rect width="120" height="120" fill="white"/>
</clipPath>
</defs>
</svg>
