<svg height="39.93" viewBox="0 0 39.93 39.93" width="39.93" xmlns="http://www.w3.org/2000/svg" xmlns:xlink="http://www.w3.org/1999/xlink"><linearGradient id="a" gradientUnits="objectBoundingBox" x1="1.205" x2="-.807" y1="1.237" y2="-.312"><stop offset="0" stop-color="#f39"/><stop offset="1" stop-color="#f39"/></linearGradient><g fill="url(#a)"><path d="m28.035 39.93h-16.135a11.909 11.909 0 0 1 -11.9-11.895v-16.135a11.909 11.909 0 0 1 11.9-11.9h16.14a11.909 11.909 0 0 1 11.9 11.9v16.14a11.909 11.909 0 0 1 -11.905 11.89zm-16.135-35.913a7.888 7.888 0 0 0 -7.883 7.883v16.14a7.887 7.887 0 0 0 7.883 7.873h16.14a7.887 7.887 0 0 0 7.878-7.878v-16.135a7.887 7.887 0 0 0 -7.878-7.879z"/><path d="m10.328 20.655a10.328 10.328 0 1 1 10.327-10.327 10.339 10.339 0 0 1 -10.327 10.327zm0-16.638a6.31 6.31 0 1 0 6.31 6.311 6.318 6.318 0 0 0 -6.31-6.311z" transform="translate(9.638 9.638)"/><path d="m2.475 0a2.475 2.475 0 1 1 -2.475 2.475 2.475 2.475 0 0 1 2.475-2.475" transform="translate(27.838 7.241)"/></g></svg>