<svg width="240" height="44" viewBox="0 0 240 44" fill="none" xmlns="http://www.w3.org/2000/svg">
<path d="M25.5596 20.8324C24.1659 18.3137 25.0482 15.09 27.5301 13.632V13.632C30.0121 12.1739 33.1539 13.0338 34.5475 15.5524L44.7756 34.037C46.1693 36.5556 45.287 39.7794 42.8051 41.2374V41.2374C40.3231 42.6954 37.1813 41.8356 35.7877 39.317L25.5596 20.8324Z" fill="#6D4FAD"/>
<rect x="0.864746" y="42.24" width="10.56" height="31.1351" rx="5.28" transform="rotate(-90 0.864746 42.24)" fill="#486EDD"/>
<rect width="10.4241" height="46.01" rx="5.21204" transform="matrix(0.862228 0.506519 -0.484155 0.874982 20.9785 -1.31995)" fill="#E0E0E0"/>
<g clip-path="url(#clip0_784_51113)">
<path d="M48.989 19.652C48.989 18.364 49.2497 17.237 49.771 16.271C50.2923 15.2897 51.0053 14.5307 51.91 13.994C52.83 13.4573 53.8497 13.189 54.969 13.189C56.073 13.189 57.0313 13.4267 57.844 13.902C58.6567 14.3773 59.2623 14.9753 59.661 15.696V13.396H61.777V26H59.661V23.654C59.247 24.39 58.626 25.0033 57.798 25.494C56.9853 25.9693 56.0347 26.207 54.946 26.207C53.8267 26.207 52.8147 25.931 51.91 25.379C51.0053 24.827 50.2923 24.0527 49.771 23.056C49.2497 22.0593 48.989 20.9247 48.989 19.652ZM59.661 19.675C59.661 18.7243 59.4693 17.8963 59.086 17.191C58.7027 16.4857 58.1813 15.949 57.522 15.581C56.878 15.1977 56.165 15.006 55.383 15.006C54.601 15.006 53.888 15.19 53.244 15.558C52.6 15.926 52.0863 16.4627 51.703 17.168C51.3197 17.8733 51.128 18.7013 51.128 19.652C51.128 20.618 51.3197 21.4613 51.703 22.182C52.0863 22.8873 52.6 23.4317 53.244 23.815C53.888 24.183 54.601 24.367 55.383 24.367C56.165 24.367 56.878 24.183 57.522 23.815C58.1813 23.4317 58.7027 22.8873 59.086 22.182C59.4693 21.4613 59.661 20.6257 59.661 19.675ZM69.776 26.207C68.81 26.207 67.9436 26.046 67.177 25.724C66.4103 25.3867 65.8046 24.9267 65.36 24.344C64.9153 23.746 64.67 23.0637 64.624 22.297H66.786C66.8473 22.9257 67.1386 23.4393 67.66 23.838C68.1966 24.2367 68.8943 24.436 69.753 24.436C70.5503 24.436 71.179 24.2597 71.639 23.907C72.099 23.5543 72.329 23.1097 72.329 22.573C72.329 22.021 72.0836 21.6147 71.593 21.354C71.1023 21.078 70.3433 20.8097 69.316 20.549C68.3806 20.3037 67.614 20.0583 67.016 19.813C66.4333 19.5523 65.9273 19.1767 65.498 18.686C65.084 18.18 64.877 17.5207 64.877 16.708C64.877 16.064 65.0686 15.4737 65.452 14.937C65.8353 14.4003 66.3796 13.9787 67.085 13.672C67.7903 13.35 68.5953 13.189 69.5 13.189C70.8953 13.189 72.0223 13.5417 72.881 14.247C73.7396 14.9523 74.1996 15.9183 74.261 17.145H72.168C72.122 16.4857 71.8536 15.9567 71.363 15.558C70.8876 15.1593 70.2436 14.96 69.431 14.96C68.6796 14.96 68.0816 15.121 67.637 15.443C67.1923 15.765 66.97 16.1867 66.97 16.708C66.97 17.122 67.1003 17.467 67.361 17.743C67.637 18.0037 67.9743 18.2183 68.373 18.387C68.787 18.5403 69.3543 18.7167 70.075 18.916C70.9796 19.1613 71.7156 19.4067 72.283 19.652C72.8503 19.882 73.3333 20.2347 73.732 20.71C74.146 21.1853 74.3606 21.8063 74.376 22.573C74.376 23.263 74.1843 23.884 73.801 24.436C73.4176 24.988 72.8733 25.425 72.168 25.747C71.478 26.0537 70.6806 26.207 69.776 26.207ZM88.1866 13.396L80.5966 31.934H78.4346L80.9186 25.862L75.8356 13.396H78.1586L82.1146 23.608L86.0246 13.396H88.1866ZM105.448 13.166C106.429 13.166 107.303 13.373 108.07 13.787C108.836 14.1857 109.442 14.7913 109.887 15.604C110.331 16.4167 110.554 17.4057 110.554 18.571V26H108.484V18.87C108.484 17.6127 108.169 16.6543 107.541 15.995C106.927 15.3203 106.092 14.983 105.034 14.983C103.945 14.983 103.079 15.3357 102.435 16.041C101.791 16.731 101.469 17.7353 101.469 19.054V26H99.3985V18.87C99.3985 17.6127 99.0842 16.6543 98.4555 15.995C97.8422 15.3203 97.0065 14.983 95.9485 14.983C94.8599 14.983 93.9935 15.3357 93.3495 16.041C92.7055 16.731 92.3835 17.7353 92.3835 19.054V26H90.2905V13.396H92.3835V15.213C92.7975 14.5537 93.3495 14.0477 94.0395 13.695C94.7449 13.3423 95.5192 13.166 96.3625 13.166C97.4205 13.166 98.3559 13.4037 99.1685 13.879C99.9812 14.3543 100.587 15.052 100.986 15.972C101.338 15.0827 101.921 14.3927 102.734 13.902C103.546 13.4113 104.451 13.166 105.448 13.166ZM129.144 13.166C130.125 13.166 130.999 13.373 131.766 13.787C132.532 14.1857 133.138 14.7913 133.583 15.604C134.027 16.4167 134.25 17.4057 134.25 18.571V26H132.18V18.87C132.18 17.6127 131.865 16.6543 131.237 15.995C130.623 15.3203 129.788 14.983 128.73 14.983C127.641 14.983 126.775 15.3357 126.131 16.041C125.487 16.731 125.165 17.7353 125.165 19.054V26H123.095V18.87C123.095 17.6127 122.78 16.6543 122.152 15.995C121.538 15.3203 120.703 14.983 119.645 14.983C118.556 14.983 117.69 15.3357 117.046 16.041C116.402 16.731 116.08 17.7353 116.08 19.054V26H113.987V13.396H116.08V15.213C116.494 14.5537 117.046 14.0477 117.736 13.695C118.441 13.3423 119.215 13.166 120.059 13.166C121.117 13.166 122.052 13.4037 122.865 13.879C123.677 14.3543 124.283 15.052 124.682 15.972C125.034 15.0827 125.617 14.3927 126.43 13.902C127.242 13.4113 128.147 13.166 129.144 13.166ZM149.183 19.215C149.183 19.6137 149.16 20.0353 149.114 20.48H139.04C139.117 21.722 139.538 22.6957 140.305 23.401C141.087 24.091 142.03 24.436 143.134 24.436C144.039 24.436 144.79 24.229 145.388 23.815C146.001 23.3857 146.431 22.8183 146.676 22.113H148.93C148.593 23.3243 147.918 24.3133 146.906 25.08C145.894 25.8313 144.637 26.207 143.134 26.207C141.938 26.207 140.865 25.9387 139.914 25.402C138.979 24.8653 138.243 24.1063 137.706 23.125C137.169 22.1283 136.901 20.9783 136.901 19.675C136.901 18.3717 137.162 17.2293 137.683 16.248C138.204 15.2667 138.933 14.5153 139.868 13.994C140.819 13.4573 141.907 13.189 143.134 13.189C144.33 13.189 145.388 13.4497 146.308 13.971C147.228 14.4923 147.933 15.213 148.424 16.133C148.93 17.0377 149.183 18.065 149.183 19.215ZM147.021 18.778C147.021 17.9807 146.845 17.2983 146.492 16.731C146.139 16.1483 145.656 15.7113 145.043 15.42C144.445 15.1133 143.778 14.96 143.042 14.96C141.984 14.96 141.079 15.2973 140.328 15.972C139.592 16.6467 139.17 17.582 139.063 18.778H147.021ZM154.499 15.121V22.55C154.499 23.1633 154.629 23.6003 154.89 23.861C155.15 24.1063 155.603 24.229 156.247 24.229H157.788V26H155.902C154.736 26 153.862 25.7317 153.28 25.195C152.697 24.6583 152.406 23.7767 152.406 22.55V15.121H150.773V13.396H152.406V10.222H154.499V13.396H157.788V15.121H154.499ZM162.417 15.443C162.785 14.7223 163.306 14.1627 163.981 13.764C164.671 13.3653 165.506 13.166 166.488 13.166V15.328H165.936C163.59 15.328 162.417 16.6007 162.417 19.146V26H160.324V13.396H162.417V15.443ZM169.985 11.349C169.586 11.349 169.249 11.211 168.973 10.935C168.697 10.659 168.559 10.3217 168.559 9.923C168.559 9.52433 168.697 9.187 168.973 8.911C169.249 8.635 169.586 8.497 169.985 8.497C170.368 8.497 170.69 8.635 170.951 8.911C171.227 9.187 171.365 9.52433 171.365 9.923C171.365 10.3217 171.227 10.659 170.951 10.935C170.69 11.211 170.368 11.349 169.985 11.349ZM170.997 13.396V26H168.904V13.396H170.997ZM173.782 19.675C173.782 18.3717 174.043 17.237 174.564 16.271C175.085 15.2897 175.806 14.5307 176.726 13.994C177.661 13.4573 178.727 13.189 179.923 13.189C181.472 13.189 182.744 13.5647 183.741 14.316C184.753 15.0673 185.42 16.11 185.742 17.444H183.488C183.273 16.6773 182.852 16.0717 182.223 15.627C181.61 15.1823 180.843 14.96 179.923 14.96C178.727 14.96 177.761 15.374 177.025 16.202C176.289 17.0147 175.921 18.1723 175.921 19.675C175.921 21.193 176.289 22.366 177.025 23.194C177.761 24.022 178.727 24.436 179.923 24.436C180.843 24.436 181.61 24.2213 182.223 23.792C182.836 23.3627 183.258 22.7493 183.488 21.952H185.742C185.405 23.24 184.73 24.275 183.718 25.057C182.706 25.8237 181.441 26.207 179.923 26.207C178.727 26.207 177.661 25.9387 176.726 25.402C175.806 24.8653 175.085 24.1063 174.564 23.125C174.043 22.1437 173.782 20.9937 173.782 19.675ZM187.753 19.652C187.753 18.364 188.013 17.237 188.535 16.271C189.056 15.2897 189.769 14.5307 190.674 13.994C191.594 13.4573 192.613 13.189 193.733 13.189C194.837 13.189 195.795 13.4267 196.608 13.902C197.42 14.3773 198.026 14.9753 198.425 15.696V13.396H200.541V26H198.425V23.654C198.011 24.39 197.39 25.0033 196.562 25.494C195.749 25.9693 194.798 26.207 193.71 26.207C192.59 26.207 191.578 25.931 190.674 25.379C189.769 24.827 189.056 24.0527 188.535 23.056C188.013 22.0593 187.753 20.9247 187.753 19.652ZM198.425 19.675C198.425 18.7243 198.233 17.8963 197.85 17.191C197.466 16.4857 196.945 15.949 196.286 15.581C195.642 15.1977 194.929 15.006 194.147 15.006C193.365 15.006 192.652 15.19 192.008 15.558C191.364 15.926 190.85 16.4627 190.467 17.168C190.083 17.8733 189.892 18.7013 189.892 19.652C189.892 20.618 190.083 21.4613 190.467 22.182C190.85 22.8873 191.364 23.4317 192.008 23.815C192.652 24.183 193.365 24.367 194.147 24.367C194.929 24.367 195.642 24.183 196.286 23.815C196.945 23.4317 197.466 22.8873 197.85 22.182C198.233 21.4613 198.425 20.6257 198.425 19.675ZM206.171 8.98V26H204.078V8.98H206.171ZM210.405 26.138C210.006 26.138 209.669 26 209.393 25.724C209.117 25.448 208.979 25.1107 208.979 24.712C208.979 24.3133 209.117 23.976 209.393 23.7C209.669 23.424 210.006 23.286 210.405 23.286C210.788 23.286 211.11 23.424 211.371 23.7C211.647 23.976 211.785 24.3133 211.785 24.712C211.785 25.1107 211.647 25.448 211.371 25.724C211.11 26 210.788 26.138 210.405 26.138ZM213.785 19.652C213.785 18.364 214.046 17.237 214.567 16.271C215.088 15.2897 215.801 14.5307 216.706 13.994C217.626 13.4573 218.646 13.189 219.765 13.189C220.869 13.189 221.827 13.4267 222.64 13.902C223.453 14.3773 224.058 14.9753 224.457 15.696V13.396H226.573V26H224.457V23.654C224.043 24.39 223.422 25.0033 222.594 25.494C221.781 25.9693 220.831 26.207 219.742 26.207C218.623 26.207 217.611 25.931 216.706 25.379C215.801 24.827 215.088 24.0527 214.567 23.056C214.046 22.0593 213.785 20.9247 213.785 19.652ZM224.457 19.675C224.457 18.7243 224.265 17.8963 223.882 17.191C223.499 16.4857 222.977 15.949 222.318 15.581C221.674 15.1977 220.961 15.006 220.179 15.006C219.397 15.006 218.684 15.19 218.04 15.558C217.396 15.926 216.882 16.4627 216.499 17.168C216.116 17.8733 215.924 18.7013 215.924 19.652C215.924 20.618 216.116 21.4613 216.499 22.182C216.882 22.8873 217.396 23.4317 218.04 23.815C218.684 24.183 219.397 24.367 220.179 24.367C220.961 24.367 221.674 24.183 222.318 23.815C222.977 23.4317 223.499 22.8873 223.882 22.182C224.265 21.4613 224.457 20.6257 224.457 19.675ZM231.191 11.349C230.792 11.349 230.455 11.211 230.179 10.935C229.903 10.659 229.765 10.3217 229.765 9.923C229.765 9.52433 229.903 9.187 230.179 8.911C230.455 8.635 230.792 8.497 231.191 8.497C231.574 8.497 231.896 8.635 232.157 8.911C232.433 9.187 232.571 9.52433 232.571 9.923C232.571 10.3217 232.433 10.659 232.157 10.935C231.896 11.211 231.574 11.349 231.191 11.349ZM232.203 13.396V26H230.11V13.396H232.203Z" fill="white"/>
</g>
<defs>
<clipPath id="clip0_784_51113">
<rect width="186" height="35" fill="white" transform="translate(48)"/>
</clipPath>
</defs>
</svg>
