<svg width="326" height="60" viewBox="0 0 326 60" fill="none" xmlns="http://www.w3.org/2000/svg">
<g clip-path="url(#clip0_768_50704)">
<path d="M35.4952 28.463C33.5444 24.998 34.7546 20.5773 38.1983 18.589V18.589C41.642 16.6008 46.0151 17.798 47.966 21.263L62.0953 46.3588C64.0462 49.8238 62.836 54.2446 59.3923 56.2328V56.2328C55.9486 58.221 51.5754 57.0239 49.6246 53.5588L35.4952 28.463Z" fill="#6D4FAD"/>
<rect x="1.2002" y="57.6" width="14.4" height="43.2" rx="7.2" transform="rotate(-90 1.2002 57.6)" fill="#486EDD"/>
<rect width="14.4" height="63" rx="7.2" transform="matrix(0.866025 0.5 -0.490602 0.871384 29.1079 -1.79999)" fill="#E0E0E0"/>
<g clip-path="url(#clip1_768_50704)">
<path d="M68.4854 26.168C68.4854 24.376 68.848 22.808 69.5734 21.464C70.2987 20.0987 71.2907 19.0427 72.5494 18.296C73.8294 17.5493 75.248 17.176 76.8054 17.176C78.3414 17.176 79.6747 17.5067 80.8054 18.168C81.936 18.8293 82.7787 19.6613 83.3334 20.664V17.464H86.2774V35H83.3334V31.736C82.7574 32.76 81.8934 33.6133 80.7414 34.296C79.6107 34.9573 78.288 35.288 76.7734 35.288C75.216 35.288 73.808 34.904 72.5494 34.136C71.2907 33.368 70.2987 32.2907 69.5734 30.904C68.848 29.5173 68.4854 27.9387 68.4854 26.168ZM83.3334 26.2C83.3334 24.8773 83.0667 23.7253 82.5334 22.744C82 21.7627 81.2747 21.016 80.3574 20.504C79.4614 19.9707 78.4694 19.704 77.3814 19.704C76.2934 19.704 75.3014 19.96 74.4054 20.472C73.5094 20.984 72.7947 21.7307 72.2614 22.712C71.728 23.6933 71.4614 24.8453 71.4614 26.168C71.4614 27.512 71.728 28.6853 72.2614 29.688C72.7947 30.6693 73.5094 31.4267 74.4054 31.96C75.3014 32.472 76.2934 32.728 77.3814 32.728C78.4694 32.728 79.4614 32.472 80.3574 31.96C81.2747 31.4267 82 30.6693 82.5334 29.688C83.0667 28.6853 83.3334 27.5227 83.3334 26.2ZM97.4064 35.288C96.0624 35.288 94.857 35.064 93.7904 34.616C92.7237 34.1467 91.881 33.5067 91.2624 32.696C90.6437 31.864 90.3024 30.9147 90.2384 29.848H93.2464C93.3317 30.7227 93.737 31.4373 94.4624 31.992C95.209 32.5467 96.1797 32.824 97.3744 32.824C98.4837 32.824 99.3584 32.5787 99.9984 32.088C100.638 31.5973 100.958 30.9787 100.958 30.232C100.958 29.464 100.617 28.8987 99.9344 28.536C99.2517 28.152 98.1957 27.7787 96.7664 27.416C95.465 27.0747 94.3984 26.7333 93.5664 26.392C92.7557 26.0293 92.0517 25.5067 91.4544 24.824C90.8784 24.12 90.5904 23.2027 90.5904 22.072C90.5904 21.176 90.857 20.3547 91.3904 19.608C91.9237 18.8613 92.681 18.2747 93.6624 17.848C94.6437 17.4 95.7637 17.176 97.0224 17.176C98.9637 17.176 100.532 17.6667 101.726 18.648C102.921 19.6293 103.561 20.9733 103.646 22.68H100.734C100.67 21.7627 100.297 21.0267 99.6144 20.472C98.953 19.9173 98.057 19.64 96.9264 19.64C95.881 19.64 95.049 19.864 94.4304 20.312C93.8117 20.76 93.5024 21.3467 93.5024 22.072C93.5024 22.648 93.6837 23.128 94.0464 23.512C94.4304 23.8747 94.8997 24.1733 95.4544 24.408C96.0304 24.6213 96.8197 24.8667 97.8224 25.144C99.081 25.4853 100.105 25.8267 100.894 26.168C101.684 26.488 102.356 26.9787 102.91 27.64C103.486 28.3013 103.785 29.1653 103.806 30.232C103.806 31.192 103.54 32.056 103.006 32.824C102.473 33.592 101.716 34.2 100.734 34.648C99.7744 35.0747 98.665 35.288 97.4064 35.288ZM123.021 17.464L112.461 43.256H109.453L112.909 34.808L105.837 17.464H109.069L114.573 31.672L120.013 17.464H123.021ZM147.036 17.144C148.402 17.144 149.618 17.432 150.684 18.008C151.751 18.5627 152.594 19.4053 153.212 20.536C153.831 21.6667 154.14 23.0427 154.14 24.664V35H151.26V25.08C151.26 23.3307 150.823 21.9973 149.948 21.08C149.095 20.1413 147.932 19.672 146.46 19.672C144.946 19.672 143.74 20.1627 142.844 21.144C141.948 22.104 141.5 23.5013 141.5 25.336V35H138.62V25.08C138.62 23.3307 138.183 21.9973 137.308 21.08C136.455 20.1413 135.292 19.672 133.82 19.672C132.306 19.672 131.1 20.1627 130.204 21.144C129.308 22.104 128.86 23.5013 128.86 25.336V35H125.948V17.464H128.86V19.992C129.436 19.0747 130.204 18.3707 131.164 17.88C132.146 17.3893 133.223 17.144 134.396 17.144C135.868 17.144 137.17 17.4747 138.3 18.136C139.431 18.7973 140.274 19.768 140.828 21.048C141.319 19.8107 142.13 18.8507 143.26 18.168C144.391 17.4853 145.65 17.144 147.036 17.144ZM180.005 17.144C181.37 17.144 182.586 17.432 183.653 18.008C184.72 18.5627 185.562 19.4053 186.181 20.536C186.8 21.6667 187.109 23.0427 187.109 24.664V35H184.229V25.08C184.229 23.3307 183.792 21.9973 182.917 21.08C182.064 20.1413 180.901 19.672 179.429 19.672C177.914 19.672 176.709 20.1627 175.813 21.144C174.917 22.104 174.469 23.5013 174.469 25.336V35H171.589V25.08C171.589 23.3307 171.152 21.9973 170.277 21.08C169.424 20.1413 168.261 19.672 166.789 19.672C165.274 19.672 164.069 20.1627 163.173 21.144C162.277 22.104 161.829 23.5013 161.829 25.336V35H158.917V17.464H161.829V19.992C162.405 19.0747 163.173 18.3707 164.133 17.88C165.114 17.3893 166.192 17.144 167.365 17.144C168.837 17.144 170.138 17.4747 171.269 18.136C172.4 18.7973 173.242 19.768 173.797 21.048C174.288 19.8107 175.098 18.8507 176.229 18.168C177.36 17.4853 178.618 17.144 180.005 17.144ZM207.886 25.56C207.886 26.1147 207.854 26.7013 207.79 27.32H193.774C193.881 29.048 194.467 30.4027 195.534 31.384C196.622 32.344 197.934 32.824 199.47 32.824C200.729 32.824 201.774 32.536 202.606 31.96C203.459 31.3627 204.057 30.5733 204.398 29.592H207.534C207.065 31.2773 206.126 32.6533 204.718 33.72C203.31 34.7653 201.561 35.288 199.47 35.288C197.806 35.288 196.313 34.9147 194.99 34.168C193.689 33.4213 192.665 32.3653 191.918 31C191.171 29.6133 190.798 28.0133 190.798 26.2C190.798 24.3867 191.161 22.7973 191.886 21.432C192.611 20.0667 193.625 19.0213 194.926 18.296C196.249 17.5493 197.763 17.176 199.47 17.176C201.134 17.176 202.606 17.5387 203.886 18.264C205.166 18.9893 206.147 19.992 206.83 21.272C207.534 22.5307 207.886 23.96 207.886 25.56ZM204.878 24.952C204.878 23.8427 204.633 22.8933 204.142 22.104C203.651 21.2933 202.979 20.6853 202.126 20.28C201.294 19.8533 200.366 19.64 199.342 19.64C197.87 19.64 196.611 20.1093 195.566 21.048C194.542 21.9867 193.955 23.288 193.806 24.952H204.878ZM215.282 19.864V30.2C215.282 31.0533 215.463 31.6613 215.826 32.024C216.188 32.3653 216.818 32.536 217.714 32.536H219.858V35H217.234C215.612 35 214.396 34.6267 213.586 33.88C212.775 33.1333 212.37 31.9067 212.37 30.2V19.864H210.098V17.464H212.37V13.048H215.282V17.464H219.858V19.864H215.282ZM226.298 20.312C226.81 19.3093 227.535 18.5307 228.474 17.976C229.434 17.4213 230.597 17.144 231.962 17.144V20.152H231.194C227.93 20.152 226.298 21.9227 226.298 25.464V35H223.386V17.464H226.298V20.312ZM236.827 14.616C236.273 14.616 235.803 14.424 235.419 14.04C235.035 13.656 234.843 13.1867 234.843 12.632C234.843 12.0773 235.035 11.608 235.419 11.224C235.803 10.84 236.273 10.648 236.827 10.648C237.361 10.648 237.809 10.84 238.171 11.224C238.555 11.608 238.747 12.0773 238.747 12.632C238.747 13.1867 238.555 13.656 238.171 14.04C237.809 14.424 237.361 14.616 236.827 14.616ZM238.235 17.464V35H235.323V17.464H238.235ZM242.11 26.2C242.11 24.3867 242.473 22.808 243.198 21.464C243.924 20.0987 244.926 19.0427 246.206 18.296C247.508 17.5493 248.99 17.176 250.654 17.176C252.809 17.176 254.58 17.6987 255.966 18.744C257.374 19.7893 258.302 21.24 258.75 23.096H255.614C255.316 22.0293 254.729 21.1867 253.854 20.568C253.001 19.9493 251.934 19.64 250.654 19.64C248.99 19.64 247.646 20.216 246.622 21.368C245.598 22.4987 245.086 24.1093 245.086 26.2C245.086 28.312 245.598 29.944 246.622 31.096C247.646 32.248 248.99 32.824 250.654 32.824C251.934 32.824 253.001 32.5253 253.854 31.928C254.708 31.3307 255.294 30.4773 255.614 29.368H258.75C258.281 31.16 257.342 32.6 255.934 33.688C254.526 34.7547 252.766 35.288 250.654 35.288C248.99 35.288 247.508 34.9147 246.206 34.168C244.926 33.4213 243.924 32.3653 243.198 31C242.473 29.6347 242.11 28.0347 242.11 26.2ZM261.548 26.168C261.548 24.376 261.911 22.808 262.636 21.464C263.361 20.0987 264.353 19.0427 265.612 18.296C266.892 17.5493 268.311 17.176 269.868 17.176C271.404 17.176 272.737 17.5067 273.868 18.168C274.999 18.8293 275.841 19.6613 276.396 20.664V17.464H279.34V35H276.396V31.736C275.82 32.76 274.956 33.6133 273.804 34.296C272.673 34.9573 271.351 35.288 269.836 35.288C268.279 35.288 266.871 34.904 265.612 34.136C264.353 33.368 263.361 32.2907 262.636 30.904C261.911 29.5173 261.548 27.9387 261.548 26.168ZM276.396 26.2C276.396 24.8773 276.129 23.7253 275.596 22.744C275.063 21.7627 274.337 21.016 273.42 20.504C272.524 19.9707 271.532 19.704 270.444 19.704C269.356 19.704 268.364 19.96 267.468 20.472C266.572 20.984 265.857 21.7307 265.324 22.712C264.791 23.6933 264.524 24.8453 264.524 26.168C264.524 27.512 264.791 28.6853 265.324 29.688C265.857 30.6693 266.572 31.4267 267.468 31.96C268.364 32.472 269.356 32.728 270.444 32.728C271.532 32.728 272.524 32.472 273.42 31.96C274.337 31.4267 275.063 30.6693 275.596 29.688C276.129 28.6853 276.396 27.5227 276.396 26.2ZM287.173 11.32V35H284.261V11.32H287.173ZM293.064 35.192C292.509 35.192 292.04 35 291.656 34.616C291.272 34.232 291.08 33.7627 291.08 33.208C291.08 32.6533 291.272 32.184 291.656 31.8C292.04 31.416 292.509 31.224 293.064 31.224C293.597 31.224 294.045 31.416 294.408 31.8C294.792 32.184 294.984 32.6533 294.984 33.208C294.984 33.7627 294.792 34.232 294.408 34.616C294.045 35 293.597 35.192 293.064 35.192ZM297.767 26.168C297.767 24.376 298.129 22.808 298.855 21.464C299.58 20.0987 300.572 19.0427 301.831 18.296C303.111 17.5493 304.529 17.176 306.087 17.176C307.623 17.176 308.956 17.5067 310.087 18.168C311.217 18.8293 312.06 19.6613 312.615 20.664V17.464H315.559V35H312.615V31.736C312.039 32.76 311.175 33.6133 310.023 34.296C308.892 34.9573 307.569 35.288 306.055 35.288C304.497 35.288 303.089 34.904 301.831 34.136C300.572 33.368 299.58 32.2907 298.855 30.904C298.129 29.5173 297.767 27.9387 297.767 26.168ZM312.615 26.2C312.615 24.8773 312.348 23.7253 311.815 22.744C311.281 21.7627 310.556 21.016 309.639 20.504C308.743 19.9707 307.751 19.704 306.663 19.704C305.575 19.704 304.583 19.96 303.687 20.472C302.791 20.984 302.076 21.7307 301.543 22.712C301.009 23.6933 300.743 24.8453 300.743 26.168C300.743 27.512 301.009 28.6853 301.543 29.688C302.076 30.6693 302.791 31.4267 303.687 31.96C304.583 32.472 305.575 32.728 306.663 32.728C307.751 32.728 308.743 32.472 309.639 31.96C310.556 31.4267 311.281 30.6693 311.815 29.688C312.348 28.6853 312.615 27.5227 312.615 26.2ZM321.984 14.616C321.429 14.616 320.96 14.424 320.576 14.04C320.192 13.656 320 13.1867 320 12.632C320 12.0773 320.192 11.608 320.576 11.224C320.96 10.84 321.429 10.648 321.984 10.648C322.517 10.648 322.965 10.84 323.328 11.224C323.712 11.608 323.904 12.0773 323.904 12.632C323.904 13.1867 323.712 13.656 323.328 14.04C322.965 14.424 322.517 14.616 321.984 14.616ZM323.392 17.464V35H320.48V17.464H323.392Z" fill="#486EDD"/>
</g>
</g>
<defs>
<clipPath id="clip0_768_50704">
<rect width="326" height="60" fill="white"/>
</clipPath>
<clipPath id="clip1_768_50704">
<rect width="259" height="43" fill="white" transform="translate(67)"/>
</clipPath>
</defs>
</svg>
