<svg width="300" height="300" viewBox="0 0 300 300" fill="none" xmlns="http://www.w3.org/2000/svg">
<path d="M165.474 247.05C165.474 259.109 183.241 266 192.984 266C231.957 266 295 176.99 295 109.802C295 70.7525 268.063 34 226.798 34C188.399 34 160.889 62.7129 160.889 101.188C160.889 153.446 205.02 156.891 205.02 178.139C205.02 214.317 165.474 234.99 165.474 247.05ZM9.58494 247.05C9.58494 259.109 27.3518 266 37.0948 266C76.0672 266 139.111 176.99 139.111 109.802C139.111 70.7525 112.174 34 70.9091 34C32.5099 34 5 62.7129 5 101.188C5 153.446 49.1304 156.891 49.1304 178.139C49.1304 214.317 9.58494 234.99 9.58494 247.05Z" fill="#FF3399"/>
</svg>
