<svg width="512" height="512" viewBox="0 0 512 512" fill="none" xmlns="http://www.w3.org/2000/svg">
<g clip-path="url(#clip0_805_51183)">
<path d="M348.617 38.2779C370.241 22.3043 400.684 16.1807 424.505 28.6424C397.688 40.2858 375.854 61.0393 362.867 87.2309C357.894 97.3501 353.417 109.123 343.158 113.8C336.775 116.71 329.241 116.148 322.631 113.798C316.02 111.448 310.14 107.456 304.342 103.506L302.604 103.297C312.922 78.4725 326.994 54.2515 348.617 38.2779Z" fill="#29CC6A"/>
<path d="M424.313 29.1729C402.072 29.8697 380.616 37.5567 362.992 51.1421C359.146 53.9994 355.775 57.445 353.002 61.3521C350.424 65.2454 348.935 69.7581 348.691 74.4213C348.376 78.7647 348.557 83.244 347.191 87.4352C346.46 89.5702 345.286 91.5266 343.746 93.1761C342.207 94.8256 340.335 96.1309 338.256 97.0065C333.13 99.323 327.478 99.6597 321.939 99.797C315.789 99.9493 309.399 100.01 303.806 102.906C303.129 103.257 302.624 102.185 303.301 101.834C313.031 96.7964 324.402 100.083 334.629 97.085C339.401 95.6859 343.781 92.8401 345.697 88.0789C347.373 83.9153 347.19 79.296 347.471 74.8955C347.643 70.3429 348.927 65.9016 351.211 61.9596C353.776 57.9239 357.009 54.3541 360.771 51.4032C369.136 44.6244 378.515 39.2031 388.565 35.3379C400.009 30.8628 412.135 28.3785 424.417 27.9924C425.177 27.9688 425.068 29.1494 424.313 29.1729Z" fill="white"/>
<path d="M368.41 46.4337C366.532 43.1674 365.876 39.34 366.56 35.6349C367.243 31.9298 369.221 28.5883 372.141 26.2071C372.734 25.7274 373.507 26.6255 372.914 27.1059C370.191 29.3182 368.348 32.431 367.719 35.8824C367.089 39.3339 367.714 42.8967 369.481 45.9279C369.864 46.587 368.791 47.0891 368.41 46.4337Z" fill="white"/>
<path d="M348.561 72.1981C355.978 74.2713 363.905 73.4727 370.76 69.9613C371.438 69.6129 371.943 70.6848 371.265 71.0328C364.125 74.6735 355.875 75.4878 348.161 73.3133C347.426 73.1056 347.83 71.9914 348.561 72.1981Z" fill="white"/>
<path d="M399.952 32.4329C400.415 33.8481 401.223 35.1261 402.302 36.1521C403.381 37.1781 404.698 37.9199 406.135 38.3111C406.873 38.5094 406.468 39.6234 405.735 39.4264C404.15 38.9868 402.696 38.1658 401.501 37.0348C400.306 35.9039 399.407 34.4976 398.881 32.9387C398.819 32.7959 398.813 32.6349 398.866 32.4884C398.919 32.342 399.025 32.221 399.163 32.1501C399.306 32.0838 399.468 32.0764 399.616 32.1293C399.764 32.1823 399.884 32.2914 399.952 32.4329Z" fill="white"/>
<path d="M443.391 117.684C442.927 117.573 442.463 117.462 441.991 117.358C435.746 115.902 429.393 114.955 422.994 114.527C422.5 114.486 421.998 114.452 421.504 114.425C406.077 113.559 390.623 115.564 375.929 120.339C370.083 122.245 364.391 124.592 358.901 127.361C351.32 131.186 343.405 135.936 335.243 137.002C334.393 137.123 333.536 137.19 332.677 137.205L302.483 105.435C302.45 105.328 302.411 105.228 302.378 105.121L301.114 103.907C301.387 103.745 301.674 103.582 301.947 103.419C302.105 103.324 302.27 103.237 302.428 103.142C302.536 103.081 302.644 103.02 302.737 102.959C302.773 102.938 302.809 102.918 302.837 102.904C302.931 102.843 303.024 102.796 303.111 102.742C304.711 101.828 306.321 100.923 307.94 100.028C307.947 100.021 307.947 100.021 307.961 100.021C320.314 93.2342 333.343 87.4187 346.839 83.7655C347.246 83.6558 347.659 83.5387 348.078 83.4435C354.171 81.8305 360.386 80.7183 366.66 80.1178C370.097 79.8001 373.547 79.6565 376.998 79.6877C385.915 79.7854 394.761 81.285 403.212 84.1315C420.058 89.8087 434.901 100.81 442.799 116.481C443.001 116.882 443.196 117.276 443.391 117.684Z" fill="#29CC6A"/>
<path d="M442.92 117.996C424.742 105.161 402.983 98.3811 380.732 98.6176C375.941 98.5835 371.175 99.3048 366.608 100.755C362.206 102.311 358.3 105.018 355.298 108.594C352.431 111.873 349.878 115.558 346.265 118.082C344.396 119.347 342.281 120.202 340.058 120.592C337.835 120.982 335.555 120.898 333.368 120.345C327.88 119.108 323.165 115.974 318.66 112.749C313.658 109.168 308.519 105.369 302.31 104.314C301.558 104.186 301.8 103.026 302.551 103.154C313.354 104.99 320.454 114.461 330.425 118.224C335.078 119.98 340.288 120.345 344.684 117.697C348.529 115.381 351.164 111.583 354.038 108.239C356.916 104.707 360.615 101.934 364.812 100.161C369.29 98.4834 374.021 97.5797 378.802 97.4889C389.562 97.1129 400.314 98.431 410.665 101.395C422.497 104.712 433.675 110.029 443.714 117.116C444.335 117.555 443.537 118.432 442.92 117.996Z" fill="white"/>
<path d="M387.892 98.1198C388.359 94.3812 390.14 90.9304 392.916 88.3836C395.693 85.8368 399.284 84.36 403.049 84.2167C403.811 84.1903 403.888 85.373 403.125 85.3994C399.619 85.5263 396.273 86.9024 393.693 89.2792C391.112 91.6561 389.466 94.8771 389.052 98.361C388.961 99.118 387.801 98.8724 387.892 98.1198Z" fill="white"/>
<path d="M356.531 106.741C361.206 112.862 368.015 116.997 375.602 118.32C376.354 118.451 376.112 119.611 375.361 119.48C367.468 118.088 360.391 113.771 355.54 107.39C355.079 106.782 356.072 106.136 356.531 106.741Z" fill="white"/>
<path d="M421.507 105.932C421.024 107.341 420.9 108.848 421.144 110.317C421.388 111.785 421.993 113.171 422.904 114.348C423.374 114.951 422.38 115.596 421.914 114.998C420.912 113.692 420.246 112.162 419.973 110.539C419.7 108.917 419.828 107.252 420.347 105.691C420.383 105.54 420.476 105.408 420.606 105.323C420.736 105.237 420.894 105.205 421.047 105.231C421.201 105.264 421.335 105.356 421.421 105.487C421.507 105.619 421.538 105.778 421.507 105.932Z" fill="white"/>
<path d="M342.912 101.201H340.572V37.0998C340.572 32.2278 339.613 27.4035 337.748 22.9023C335.884 18.4012 333.151 14.3113 329.706 10.8663C326.261 7.42125 322.171 4.68851 317.67 2.82407C313.169 0.959625 308.345 2.62652e-06 303.473 0H167.666C162.794 -1.05057e-05 157.97 0.959592 153.469 2.82402C148.968 4.68845 144.878 7.42119 141.433 10.8662C137.988 14.3112 135.255 18.4011 133.391 22.9022C131.526 27.4034 130.566 32.2277 130.566 37.0997V388.762C130.566 398.601 134.475 408.038 141.433 414.995C148.39 421.953 157.827 425.861 167.666 425.861H303.472C313.312 425.861 322.748 421.953 329.706 414.995C336.663 408.038 340.572 398.601 340.572 388.762V146.829H342.912V101.201Z" fill="#3F3D56"/>
<path d="M304.969 9.65207H287.241C288.057 11.6507 288.368 13.8192 288.148 15.9665C287.927 18.1138 287.182 20.1739 285.978 21.9655C284.774 23.757 283.148 25.225 281.243 26.24C279.338 27.2551 277.213 27.7861 275.054 27.7863H197.253C195.094 27.7861 192.969 27.2551 191.064 26.2401C189.159 25.225 187.533 23.757 186.329 21.9655C185.125 20.1739 184.38 18.1138 184.16 15.9665C183.939 13.8192 184.25 11.6507 185.066 9.65204H168.508C161.16 9.65204 154.113 12.571 148.918 17.7668C143.722 22.9627 140.803 30.0097 140.803 37.3577V388.504C140.803 392.142 141.519 395.745 142.912 399.106C144.304 402.468 146.345 405.522 148.918 408.095C151.49 410.667 154.545 412.708 157.906 414.1C161.267 415.493 164.87 416.209 168.508 416.209H304.969C308.607 416.209 312.21 415.493 315.571 414.1C318.933 412.708 321.987 410.667 324.56 408.095C327.132 405.522 329.173 402.468 330.565 399.106C331.958 395.745 332.674 392.142 332.674 388.504V37.3577C332.674 30.0097 329.755 22.9627 324.56 17.7668C319.364 12.571 312.317 9.65206 304.969 9.65207Z" fill="white"/>
<path d="M239.36 303.408C229.312 303.417 219.36 301.445 210.074 297.604C200.788 293.763 192.351 288.128 185.246 281.023C178.14 273.917 172.506 265.48 168.665 256.194C164.823 246.909 162.851 236.957 162.86 226.908C162.846 212.798 166.74 198.959 174.111 186.927C181.482 174.894 192.042 165.139 204.619 158.742C213.736 154.104 223.688 151.337 233.891 150.605C244.094 149.872 254.34 151.189 264.025 154.478C281.179 160.324 295.7 172.068 305.004 187.62C314.307 203.172 317.789 221.521 314.828 239.399C311.867 257.278 302.656 273.525 288.836 285.247C275.015 296.969 257.482 303.405 239.36 303.408ZM239.36 153.408C227.755 153.374 216.31 156.119 205.983 161.414C196.956 166.013 188.977 172.428 182.547 180.258C176.117 188.087 171.376 197.161 168.62 206.91C165.863 216.659 165.152 226.873 166.531 236.909C167.91 246.946 171.349 256.59 176.632 265.234C181.915 273.879 188.928 281.338 197.231 287.144C205.534 292.949 214.947 296.975 224.88 298.97C234.813 300.964 245.051 300.883 254.951 298.733C264.851 296.583 274.2 292.409 282.41 286.473C286.38 283.609 290.051 280.352 293.367 276.752C303.066 266.258 309.494 253.163 311.865 239.071C314.236 224.979 312.446 210.502 306.714 197.412C300.983 184.322 291.558 173.188 279.596 165.372C267.633 157.556 253.65 153.398 239.36 153.408Z" fill="#F0F0F0"/>
<path d="M73.5971 159.017C75.6969 159.28 77.7135 160 79.5047 161.127C81.296 162.254 82.8184 163.76 83.9646 165.539C85.1109 167.318 85.8532 169.327 86.1392 171.424C86.4252 173.521 86.2479 175.655 85.62 177.676L111.037 198.847L101.938 217.431L66.4644 187.029C63.1392 185.749 60.3991 183.293 58.7633 180.128C57.1275 176.963 56.7095 173.307 57.5888 169.854C58.468 166.402 60.5832 163.391 63.5336 161.394C66.4841 159.396 70.0647 158.55 73.5971 159.017Z" fill="#FFB6B6"/>
<path d="M310.98 247.308C310.471 241.828 308.363 231.978 306.575 228.335C301.078 213.947 265.56 202.122 260.791 200.598L259.581 187.148L210.23 181.838L203.97 199.038L186.271 205.678C185.069 206.126 183.981 206.835 183.086 207.753C182.19 208.671 181.509 209.775 181.09 210.988L165.21 215.578L149.541 220.108L95.1006 181.748L92.5303 183.428L75.3506 194.638L72.7002 196.368L143.15 259.928L169.32 253.788L189 249.158L190.68 255.978L186.331 279.938C198.933 292.545 215.614 300.249 233.383 301.67C251.152 303.09 268.846 298.133 283.291 287.688L294.47 277.768C302.262 269.343 308.014 259.239 311.28 248.238L310.98 247.308Z" fill="#E4E4E4"/>
<path d="M250.412 178.382C269.041 172.214 279.143 152.111 272.975 133.482C266.807 114.852 246.705 104.75 228.075 110.918C209.446 117.086 199.344 137.189 205.512 155.818C211.68 174.448 231.782 184.55 250.412 178.382Z" fill="#FFB6B6"/>
<path d="M211.177 104.142C214.632 99.2092 219.815 95.7562 225.699 94.4696C231.516 93.2731 237.57 94.3836 242.584 97.5667C248.036 95.3704 253.914 93.9134 259.689 94.6541C265.465 95.3949 271.125 98.6208 273.798 103.935C274.36 105.312 275.042 106.637 275.836 107.894C278.19 111.035 282.566 111.443 286.43 111.594C284.476 112.733 282.522 113.872 280.568 115.012C282.515 115.919 284.463 116.826 286.41 117.734C283.76 118.746 281.109 119.757 278.459 120.769C284.628 126.192 286.12 135.841 283.784 143.932C281.573 151.592 276.503 158.04 270.842 163.56C269.737 159.441 270.952 154.975 271.761 150.711C272.616 146.205 272.752 140.936 269.597 137.754C267.469 135.608 264.347 134.96 261.403 134.439C246.554 131.813 231.568 130.034 216.517 129.11C214.502 128.831 212.451 129.041 210.534 129.721C206.871 131.348 205.4 135.818 204.338 139.782C203.83 132.825 204.236 125.831 205.546 118.98C206.55 113.736 208.132 108.488 211.177 104.142Z" fill="#2F2E41"/>
<path d="M257.361 339.45H215.361C213.903 339.45 212.504 338.871 211.472 337.84C210.441 336.808 209.861 335.409 209.861 333.95C209.861 332.492 210.441 331.093 211.472 330.061C212.504 329.03 213.903 328.45 215.361 328.45H257.361C258.82 328.45 260.219 329.03 261.25 330.061C262.282 331.093 262.861 332.492 262.861 333.95C262.861 335.409 262.282 336.808 261.25 337.84C260.219 338.871 258.82 339.45 257.361 339.45Z" fill="#FF3399"/>
<path d="M119.542 45.1252H4.01761C2.95305 45.1235 1.93264 44.6994 1.18048 43.9461C0.428317 43.1927 0.00585938 42.1717 0.00585938 41.1071C0.00585938 40.0426 0.428317 39.0215 1.18048 38.2682C1.93264 37.5148 2.95305 37.0907 4.01761 37.0891H119.542C120.608 37.0891 121.63 37.5124 122.383 38.2659C123.137 39.0194 123.56 40.0415 123.56 41.1071C123.56 42.1728 123.137 43.1948 122.383 43.9483C121.63 44.7019 120.608 45.1252 119.542 45.1252Z" fill="#486EDD"/>
<path d="M186.243 70.7883H4.01782C2.95223 70.7883 1.93028 70.365 1.17679 69.6115C0.4233 68.8581 0 67.8361 0 66.7705C0 65.7049 0.4233 64.683 1.17679 63.9295C1.93028 63.176 2.95223 62.7527 4.01782 62.7527H186.243C187.308 62.7527 188.33 63.176 189.084 63.9295C189.837 64.683 190.26 65.7049 190.26 66.7705C190.26 67.8361 189.837 68.8581 189.084 69.6115C188.33 70.365 187.308 70.7883 186.243 70.7883Z" fill="#486EDD"/>
<path d="M151.225 94.9656H4.01782C2.95223 94.9656 1.93028 94.5423 1.17679 93.7888C0.423301 93.0353 0 92.0133 0 90.9478C0 89.8822 0.423301 88.8602 1.17679 88.1067C1.93028 87.3532 2.95223 86.9299 4.01782 86.9299H151.225C152.29 86.9299 153.312 87.3532 154.066 88.1067C154.819 88.8602 155.243 89.8822 155.243 90.9478C155.243 92.0133 154.819 93.0353 154.066 93.7888C153.312 94.5423 152.29 94.9656 151.225 94.9656Z" fill="#CACACA"/>
<path d="M87.0268 119.054H4.01782C2.95223 119.054 1.93028 118.631 1.17679 117.877C0.423301 117.124 0 116.102 0 115.036C0 113.971 0.423301 112.949 1.17679 112.195C1.93028 111.442 2.95223 111.018 4.01782 111.018H87.0268C88.0924 111.018 89.1143 111.442 89.8678 112.195C90.6213 112.949 91.0446 113.971 91.0446 115.036C91.0446 116.102 90.6213 117.124 89.8678 117.877C89.1143 118.631 88.0924 119.054 87.0268 119.054Z" fill="#FF3399"/>
<path d="M132.882 143.14H4.01733C2.95284 143.139 1.93254 142.715 1.18042 141.961C0.428301 141.208 0.00585938 140.187 0.00585938 139.123C0.00585938 138.058 0.428301 137.037 1.18042 136.284C1.93254 135.53 2.95284 135.106 4.01733 135.105H132.882C133.947 135.106 134.967 135.53 135.719 136.284C136.471 137.037 136.894 138.058 136.894 139.123C136.894 140.187 136.471 141.208 135.719 141.961C134.967 142.715 133.947 143.139 132.882 143.14Z" fill="#CACACA"/>
<path d="M496.06 497.538L485.706 497.537L480.78 457.599L496.062 457.6L496.06 497.538Z" fill="#9F616A"/>
<path d="M500.133 511.867L460.603 511.866V511.366C460.603 507.285 462.224 503.372 465.109 500.486C467.995 497.601 471.908 495.98 475.989 495.98H475.99L483.211 490.501L496.683 495.98L500.134 495.981L500.133 511.867Z" fill="#2F2E41"/>
<path d="M490.027 309.837L485.461 254.158L481.873 233.26L501.959 228.824L508.624 257.435L502.817 311.383C503.988 312.818 504.704 314.571 504.871 316.416C505.039 318.261 504.651 320.114 503.757 321.737C502.864 323.36 501.505 324.678 499.857 325.523C498.208 326.368 496.344 326.701 494.505 326.479C492.666 326.257 490.935 325.49 489.535 324.276C488.135 323.063 487.13 321.459 486.648 319.67C486.167 317.881 486.231 315.989 486.833 314.237C487.436 312.485 488.548 310.953 490.027 309.837Z" fill="#9F616A"/>
<path d="M441.06 497.538L430.706 497.537L425.78 457.599L441.062 457.6L441.06 497.538Z" fill="#9F616A"/>
<path d="M424.489 322.46L419.899 330.4C419.899 330.4 414.856 331.777 416.504 348.218C418.152 364.659 418.223 462.068 426.202 474.054L427.646 484.347L442.712 485.787L443.092 476.654L461.058 349.77C461.058 349.77 471.639 474.33 480.392 477.378L483.553 487.755L497.361 487.761L496.545 475.532L497.436 321.173L424.489 322.46Z" fill="#2F2E41"/>
<path d="M419.443 329.795L419.125 329.713C428.599 294.277 425.866 248.39 419.177 199.116L419.177 198.912L443.36 176.761H464.36L485.178 190.196C498.637 196.925 501.696 211.175 501.725 211.319L501.746 211.42L493.499 240.204L499.712 323.448L499.719 323.544L499.683 323.634C497.673 328.731 492.285 328.006 486.047 327.165C479.82 326.325 456.871 334.003 449.834 334.003C436.083 334.003 420.425 330.047 419.443 329.795Z" fill="#486EDD"/>
<path d="M480.82 201.415L489.841 197.491L501.727 212.064L511.361 258.761L478.361 253.761L480.82 201.415Z" fill="#486EDD"/>
<path d="M342.059 287.526L383.3 249.841L397.633 234.214L413.434 247.385L394.884 270.166L348.664 298.587C348.246 300.392 347.298 302.03 345.941 303.292C344.584 304.554 342.881 305.381 341.051 305.667C339.221 305.954 337.346 305.686 335.669 304.9C333.992 304.113 332.588 302.843 331.638 301.252C330.688 299.661 330.236 297.823 330.339 295.973C330.441 294.123 331.095 292.347 332.215 290.871C333.336 289.395 334.871 288.289 336.626 287.693C338.38 287.097 340.272 287.039 342.059 287.526Z" fill="#9F616A"/>
<path d="M382.403 250.251L393.826 235.418C393.92 235.205 403.397 214.028 411.611 204.826C420.038 195.387 426.672 200.214 426.738 200.266L426.903 200.391L427.361 235.247L395.734 273.039L382.403 250.251Z" fill="#486EDD"/>
<path d="M470.78 155.897C472.483 145.403 465.356 135.514 454.862 133.811C444.367 132.108 434.479 139.235 432.776 149.73C431.073 160.224 438.2 170.113 448.695 171.816C459.189 173.519 469.077 166.392 470.78 155.897Z" fill="#9F616A"/>
<path d="M434.179 149.956C434.179 149.956 434.025 143.188 433.169 140.194C432.313 137.199 430.602 134.632 431.458 134.632C432.313 134.632 432.741 132.493 432.741 132.493C432.741 132.493 433.597 132.065 434.025 132.493C434.452 132.921 434.88 129.499 434.88 129.499C434.88 129.499 435.308 128.215 435.736 129.071C436.163 129.927 436.164 129.499 436.591 128.215C437.019 126.932 439.158 126.076 439.158 126.076C439.158 126.076 447.286 126.504 448.57 124.793C449.853 123.082 464.398 124.365 467.393 126.504C470.387 128.643 483.649 136.343 481.51 142.76C479.371 149.177 473.214 163.952 471.671 165.433C469.231 167.776 467.541 168.62 455.996 170.918C453.737 171.367 442.204 163.992 442.204 162.708C442.204 161.425 443.594 157.355 441.36 156.796C437.981 155.952 437.601 160.223 436.746 158.939C435.89 157.656 434.179 149.956 434.179 149.956Z" fill="#2F2E41"/>
<path d="M445.133 511.867L405.603 511.866V511.366C405.603 507.285 407.224 503.372 410.109 500.486C412.995 497.601 416.908 495.98 420.989 495.98H420.99L428.211 490.501L441.683 495.98L445.134 495.981L445.133 511.867Z" fill="#2F2E41"/>
</g>
<defs>
<clipPath id="clip0_805_51183">
<rect width="512" height="512" fill="white"/>
</clipPath>
</defs>
</svg>
